<?xml version="1.0" encoding="UTF-8"?><svg xmlns="http://www.w3.org/2000/svg" xmlns:xlink="http://www.w3.org/1999/xlink" viewBox="0 0 6222.19 1082.63"><defs><style>.cls-1{fill:url(#linear-gradient-125);}.cls-1,.cls-2,.cls-3,.cls-4,.cls-5,.cls-6,.cls-7,.cls-8,.cls-9,.cls-10,.cls-11,.cls-12,.cls-13,.cls-14,.cls-15,.cls-16,.cls-17,.cls-18,.cls-19,.cls-20,.cls-21,.cls-22,.cls-23,.cls-24,.cls-25,.cls-26,.cls-27,.cls-28,.cls-29,.cls-30,.cls-31,.cls-32,.cls-33,.cls-34,.cls-35,.cls-36,.cls-37,.cls-38,.cls-39,.cls-40,.cls-41,.cls-42,.cls-43,.cls-44,.cls-45,.cls-46,.cls-47,.cls-48,.cls-49,.cls-50,.cls-51,.cls-52,.cls-53,.cls-54,.cls-55,.cls-56,.cls-57,.cls-58,.cls-59,.cls-60,.cls-61,.cls-62,.cls-63{opacity:.39;}.cls-2{fill:url(#linear-gradient-101);}.cls-3{fill:url(#linear-gradient-123);}.cls-4{fill:url(#linear-gradient-121);}.cls-5{fill:url(#linear-gradient-119);}.cls-6{fill:url(#linear-gradient-107);}.cls-7{fill:url(#linear-gradient-109);}.cls-8{fill:url(#linear-gradient-105);}.cls-9{fill:url(#linear-gradient-103);}.cls-10{fill:url(#linear-gradient-117);}.cls-11{fill:url(#linear-gradient-111);}.cls-12{fill:url(#linear-gradient-113);}.cls-13{fill:url(#linear-gradient-115);}.cls-14{fill:url(#linear-gradient);}.cls-64{fill:url(#linear-gradient-6);}.cls-64,.cls-65,.cls-66,.cls-67,.cls-68,.cls-69,.cls-70,.cls-71,.cls-72,.cls-73,.cls-74,.cls-75,.cls-76,.cls-77,.cls-78,.cls-79,.cls-80,.cls-81,.cls-82,.cls-83,.cls-84,.cls-85,.cls-86,.cls-87,.cls-88,.cls-89,.cls-90,.cls-91,.cls-92,.cls-93,.cls-94,.cls-95,.cls-96,.cls-97,.cls-98,.cls-99,.cls-100,.cls-101,.cls-102,.cls-103,.cls-104,.cls-105,.cls-106,.cls-107,.cls-108,.cls-109,.cls-110,.cls-111,.cls-112,.cls-113,.cls-114,.cls-115,.cls-116,.cls-117,.cls-118,.cls-119,.cls-120,.cls-121,.cls-122,.cls-123,.cls-124,.cls-125,.cls-126{mix-blend-mode:screen;opacity:.2;}.cls-65{fill:url(#linear-gradient-2);}.cls-66{fill:url(#linear-gradient-4);}.cls-67{fill:url(#linear-gradient-8);}.cls-127{fill:#6d49a5;}.cls-128{fill:#b195cb;}.cls-128,.cls-129{mix-blend-mode:multiply;opacity:.4;}.cls-129{fill:#020202;}.cls-68{fill:url(#linear-gradient-60);}.cls-69{fill:url(#linear-gradient-62);}.cls-70{fill:url(#linear-gradient-64);}.cls-71{fill:url(#linear-gradient-66);}.cls-72{fill:url(#linear-gradient-70);}.cls-73{fill:url(#linear-gradient-74);}.cls-74{fill:url(#linear-gradient-76);}.cls-75{fill:url(#linear-gradient-68);}.cls-76{fill:url(#linear-gradient-72);}.cls-77{fill:url(#linear-gradient-58);}.cls-78{fill:url(#linear-gradient-56);}.cls-79{fill:url(#linear-gradient-54);}.cls-80{fill:url(#linear-gradient-52);}.cls-81{fill:url(#linear-gradient-50);}.cls-82{fill:url(#linear-gradient-78);}.cls-83{fill:url(#linear-gradient-82);}.cls-84{fill:url(#linear-gradient-84);}.cls-85{fill:url(#linear-gradient-88);}.cls-86{fill:url(#linear-gradient-80);}.cls-87{fill:url(#linear-gradient-86);}.cls-88{fill:url(#linear-gradient-94);}.cls-89{fill:url(#linear-gradient-92);}.cls-90{fill:url(#linear-gradient-90);}.cls-91{fill:url(#linear-gradient-98);}.cls-92{fill:url(#linear-gradient-96);}.cls-93{fill:url(#linear-gradient-24);}.cls-94{fill:url(#linear-gradient-26);}.cls-95{fill:url(#linear-gradient-16);}.cls-96{fill:url(#linear-gradient-22);}.cls-97{fill:url(#linear-gradient-14);}.cls-98{fill:url(#linear-gradient-18);}.cls-99{fill:url(#linear-gradient-20);}.cls-100{fill:url(#linear-gradient-12);}.cls-101{fill:url(#linear-gradient-10);}.cls-102{fill:url(#linear-gradient-34);}.cls-103{fill:url(#linear-gradient-32);}.cls-104{fill:url(#linear-gradient-30);}.cls-105{fill:url(#linear-gradient-28);}.cls-106{fill:url(#linear-gradient-36);}.cls-107{fill:url(#linear-gradient-38);}.cls-108{fill:url(#linear-gradient-48);}.cls-109{fill:url(#linear-gradient-44);}.cls-110{fill:url(#linear-gradient-46);}.cls-111{fill:url(#linear-gradient-40);}.cls-112{fill:url(#linear-gradient-42);}.cls-113{fill:url(#linear-gradient-100);}.cls-114{fill:url(#linear-gradient-106);}.cls-115{fill:url(#linear-gradient-118);}.cls-116{fill:url(#linear-gradient-112);}.cls-117{fill:url(#linear-gradient-108);}.cls-118{fill:url(#linear-gradient-102);}.cls-119{fill:url(#linear-gradient-104);}.cls-120{fill:url(#linear-gradient-114);}.cls-121{fill:url(#linear-gradient-110);}.cls-122{fill:url(#linear-gradient-116);}.cls-123{fill:url(#linear-gradient-122);}.cls-124{fill:url(#linear-gradient-120);}.cls-125{fill:url(#linear-gradient-124);}.cls-126{fill:url(#linear-gradient-126);}.cls-15{fill:url(#linear-gradient-29);}.cls-16{fill:url(#linear-gradient-25);}.cls-17{fill:url(#linear-gradient-33);}.cls-18{fill:url(#linear-gradient-31);}.cls-19{fill:url(#linear-gradient-39);}.cls-20{fill:url(#linear-gradient-37);}.cls-21{fill:url(#linear-gradient-35);}.cls-22{fill:url(#linear-gradient-11);}.cls-23{fill:url(#linear-gradient-13);}.cls-24{fill:url(#linear-gradient-19);}.cls-25{fill:url(#linear-gradient-17);}.cls-26{fill:url(#linear-gradient-15);}.cls-27{fill:url(#linear-gradient-21);}.cls-28{fill:url(#linear-gradient-23);}.cls-29{fill:url(#linear-gradient-27);}.cls-30{fill:url(#linear-gradient-43);}.cls-31{fill:url(#linear-gradient-41);}.cls-32{fill:url(#linear-gradient-45);}.cls-33{fill:url(#linear-gradient-49);}.cls-34{fill:url(#linear-gradient-47);}.cls-35{fill:url(#linear-gradient-59);}.cls-36{fill:url(#linear-gradient-57);}.cls-37{fill:url(#linear-gradient-51);}.cls-38{fill:url(#linear-gradient-55);}.cls-39{fill:url(#linear-gradient-53);}.cls-40{fill:url(#linear-gradient-61);}.cls-41{fill:url(#linear-gradient-65);}.cls-42{fill:url(#linear-gradient-63);}.cls-43{fill:url(#linear-gradient-77);}.cls-44{fill:url(#linear-gradient-79);}.cls-45{fill:url(#linear-gradient-69);}.cls-46{fill:url(#linear-gradient-67);}.cls-47{fill:url(#linear-gradient-73);}.cls-48{fill:url(#linear-gradient-71);}.cls-49{fill:url(#linear-gradient-75);}.cls-50{fill:url(#linear-gradient-83);}.cls-51{fill:url(#linear-gradient-85);}.cls-52{fill:url(#linear-gradient-87);}.cls-53{fill:url(#linear-gradient-89);}.cls-54{fill:url(#linear-gradient-81);}.cls-55{fill:url(#linear-gradient-93);}.cls-56{fill:url(#linear-gradient-97);}.cls-57{fill:url(#linear-gradient-99);}.cls-58{fill:url(#linear-gradient-95);}.cls-59{fill:url(#linear-gradient-91);}.cls-130{isolation:isolate;}.cls-60{fill:url(#linear-gradient-9);}.cls-61{fill:url(#linear-gradient-3);}.cls-62{fill:url(#linear-gradient-7);}.cls-63{fill:url(#linear-gradient-5);}</style><linearGradient id="linear-gradient" x1="2088.44" y1="707.57" x2="2077.27" y2="707.57" gradientUnits="userSpaceOnUse"><stop offset="0" stop-color="#5b4677"/><stop offset="1" stop-color="#f6e2f2"/></linearGradient><linearGradient id="linear-gradient-2" x1="2179.98" y1="741.65" x2="2127.61" y2="717.61" gradientUnits="userSpaceOnUse"><stop offset="0" stop-color="#fff"/><stop offset=".19" stop-color="#fcfcfc"/><stop offset=".32" stop-color="#f2f2f2"/><stop offset=".44" stop-color="#e3e3e3"/><stop offset=".54" stop-color="#cdcdcd"/><stop offset=".64" stop-color="#b0b0b0"/><stop offset=".74" stop-color="#8d8d8d"/><stop offset=".83" stop-color="#646464"/><stop offset=".92" stop-color="#353535"/><stop offset="1" stop-color="#000"/></linearGradient><linearGradient id="linear-gradient-3" x1="2187.16" y1="707.57" x2="2175.99" y2="707.57" xlink:href="#linear-gradient"/><linearGradient id="linear-gradient-4" x1="2278.7" x2="2226.33" y2="717.61" xlink:href="#linear-gradient-2"/><linearGradient id="linear-gradient-5" x1="2285.88" x2="2274.71" xlink:href="#linear-gradient"/><linearGradient id="linear-gradient-6" x1="2377.41" x2="2325.05" xlink:href="#linear-gradient-2"/><linearGradient id="linear-gradient-7" x1="2384.6" x2="2373.43" xlink:href="#linear-gradient"/><linearGradient id="linear-gradient-8" x1="2476.13" x2="2423.76" xlink:href="#linear-gradient-2"/><linearGradient id="linear-gradient-9" x1="2483.32" y1="707.57" x2="2472.15" y2="707.57" xlink:href="#linear-gradient"/><linearGradient id="linear-gradient-10" x1="2574.85" x2="2522.48" y2="717.61" xlink:href="#linear-gradient-2"/><linearGradient id="linear-gradient-11" x1="2582.04" x2="2570.87" xlink:href="#linear-gradient"/><linearGradient id="linear-gradient-12" x1="2673.57" x2="2621.2" y2="717.61" xlink:href="#linear-gradient-2"/><linearGradient id="linear-gradient-13" x1="2680.75" x2="2669.58" xlink:href="#linear-gradient"/><linearGradient id="linear-gradient-14" x1="2772.29" y1="741.65" x2="2719.92" y2="717.61" xlink:href="#linear-gradient-2"/><linearGradient id="linear-gradient-15" x1="2779.47" x2="2768.3" xlink:href="#linear-gradient"/><linearGradient id="linear-gradient-16" x1="2871.01" x2="2818.64" y2="717.61" xlink:href="#linear-gradient-2"/><linearGradient id="linear-gradient-17" x1="2878.19" y1="707.57" x2="2867.02" y2="707.57" xlink:href="#linear-gradient"/><linearGradient id="linear-gradient-18" x1="2969.72" x2="2917.36" y2="717.61" xlink:href="#linear-gradient-2"/><linearGradient id="linear-gradient-19" x1="2976.91" x2="2965.74" xlink:href="#linear-gradient"/><linearGradient id="linear-gradient-20" x1="3068.44" x2="3016.07" y2="717.61" xlink:href="#linear-gradient-2"/><linearGradient id="linear-gradient-21" x1="3075.63" x2="3064.46" xlink:href="#linear-gradient"/><linearGradient id="linear-gradient-22" x1="3167.16" x2="3114.79" xlink:href="#linear-gradient-2"/><linearGradient id="linear-gradient-23" x1="3174.35" y1="707.57" x2="3163.18" y2="707.57" xlink:href="#linear-gradient"/><linearGradient id="linear-gradient-24" x1="3265.88" y1="741.65" x2="3213.51" y2="717.61" xlink:href="#linear-gradient-2"/><linearGradient id="linear-gradient-25" x1="3273.06" x2="3261.89" xlink:href="#linear-gradient"/><linearGradient id="linear-gradient-26" x1="3364.6" x2="3312.23" y2="717.61" xlink:href="#linear-gradient-2"/><linearGradient id="linear-gradient-27" x1="3371.78" y1="707.57" x2="3360.61" y2="707.57" xlink:href="#linear-gradient"/><linearGradient id="linear-gradient-28" x1="3463.32" y1="741.65" x2="3410.95" y2="717.61" xlink:href="#linear-gradient-2"/><linearGradient id="linear-gradient-29" x1="3470.5" y1="707.57" x2="3459.33" y2="707.57" xlink:href="#linear-gradient"/><linearGradient id="linear-gradient-30" x1="3562.03" x2="3509.67" xlink:href="#linear-gradient-2"/><linearGradient id="linear-gradient-31" x1="3569.22" x2="3558.05" xlink:href="#linear-gradient"/><linearGradient id="linear-gradient-32" x1="3660.75" x2="3608.38" y2="717.61" xlink:href="#linear-gradient-2"/><linearGradient id="linear-gradient-33" x1="3667.94" x2="3656.77" xlink:href="#linear-gradient"/><linearGradient id="linear-gradient-34" x1="3759.47" x2="3707.1" y2="717.61" xlink:href="#linear-gradient-2"/><linearGradient id="linear-gradient-35" x1="3766.66" y1="707.57" x2="3755.49" y2="707.57" xlink:href="#linear-gradient"/><linearGradient id="linear-gradient-36" x1="3858.19" x2="3805.82" y2="717.61" xlink:href="#linear-gradient-2"/><linearGradient id="linear-gradient-37" x1="3865.37" x2="3854.2" xlink:href="#linear-gradient"/><linearGradient id="linear-gradient-38" x1="3956.91" x2="3904.54" xlink:href="#linear-gradient-2"/><linearGradient id="linear-gradient-39" x1="3964.09" x2="3952.92" xlink:href="#linear-gradient"/><linearGradient id="linear-gradient-40" x1="4055.63" y1="741.65" x2="4003.26" y2="717.61" xlink:href="#linear-gradient-2"/><linearGradient id="linear-gradient-41" x1="4062.81" x2="4051.64" xlink:href="#linear-gradient"/><linearGradient id="linear-gradient-42" x1="4154.34" x2="4101.98" xlink:href="#linear-gradient-2"/><linearGradient id="linear-gradient-43" x1="14.52" x2="3.35" xlink:href="#linear-gradient"/><linearGradient id="linear-gradient-44" x1="106.05" x2="53.68" xlink:href="#linear-gradient-2"/><linearGradient id="linear-gradient-45" x1="113.24" x2="102.07" xlink:href="#linear-gradient"/><linearGradient id="linear-gradient-46" x1="204.77" x2="152.4" xlink:href="#linear-gradient-2"/><linearGradient id="linear-gradient-47" x1="211.96" x2="200.79" xlink:href="#linear-gradient"/><linearGradient id="linear-gradient-48" x1="303.49" x2="251.12" xlink:href="#linear-gradient-2"/><linearGradient id="linear-gradient-49" x1="310.67" y1="707.57" x2="299.5" y2="707.57" xlink:href="#linear-gradient"/><linearGradient id="linear-gradient-50" x1="402.21" x2="349.84" y2="717.61" xlink:href="#linear-gradient-2"/><linearGradient id="linear-gradient-51" x1="409.39" x2="398.22" xlink:href="#linear-gradient"/><linearGradient id="linear-gradient-52" x1="500.93" x2="448.56" xlink:href="#linear-gradient-2"/><linearGradient id="linear-gradient-53" x1="508.11" x2="496.94" xlink:href="#linear-gradient"/><linearGradient id="linear-gradient-54" x1="599.64" x2="547.28" y2="717.61" xlink:href="#linear-gradient-2"/><linearGradient id="linear-gradient-55" x1="606.83" y1="707.57" x2="595.66" y2="707.57" xlink:href="#linear-gradient"/><linearGradient id="linear-gradient-56" x1="698.36" x2="645.99" y2="717.61" xlink:href="#linear-gradient-2"/><linearGradient id="linear-gradient-57" x1="705.55" x2="694.38" xlink:href="#linear-gradient"/><linearGradient id="linear-gradient-58" x1="797.08" x2="744.71" y2="717.61" xlink:href="#linear-gradient-2"/><linearGradient id="linear-gradient-59" x1="804.27" x2="793.1" xlink:href="#linear-gradient"/><linearGradient id="linear-gradient-60" x1="895.8" x2="843.43" y2="717.61" xlink:href="#linear-gradient-2"/><linearGradient id="linear-gradient-61" x1="902.98" y1="707.57" x2="891.81" y2="707.57" xlink:href="#linear-gradient"/><linearGradient id="linear-gradient-62" x1="994.52" x2="942.15" xlink:href="#linear-gradient-2"/><linearGradient id="linear-gradient-63" x1="1001.7" x2="990.53" xlink:href="#linear-gradient"/><linearGradient id="linear-gradient-64" x1="1093.24" x2="1040.87" y2="717.61" xlink:href="#linear-gradient-2"/><linearGradient id="linear-gradient-65" x1="1100.42" x2="1089.25" xlink:href="#linear-gradient"/><linearGradient id="linear-gradient-66" x1="1191.95" x2="1139.59" y2="717.61" xlink:href="#linear-gradient-2"/><linearGradient id="linear-gradient-67" x1="1199.14" y1="707.57" x2="1187.97" y2="707.57" xlink:href="#linear-gradient"/><linearGradient id="linear-gradient-68" x1="1290.67" x2="1238.3" y2="717.61" xlink:href="#linear-gradient-2"/><linearGradient id="linear-gradient-69" x1="1297.86" x2="1286.69" xlink:href="#linear-gradient"/><linearGradient id="linear-gradient-70" x1="1389.39" y1="741.65" x2="1337.02" y2="717.61" xlink:href="#linear-gradient-2"/><linearGradient id="linear-gradient-71" x1="1396.58" x2="1385.41" xlink:href="#linear-gradient"/><linearGradient id="linear-gradient-72" x1="1488.11" x2="1435.74" y2="717.61" xlink:href="#linear-gradient-2"/><linearGradient id="linear-gradient-73" x1="1495.29" y1="707.57" x2="1484.12" y2="707.57" xlink:href="#linear-gradient"/><linearGradient id="linear-gradient-74" x1="1586.83" x2="1534.46" y2="717.61" xlink:href="#linear-gradient-2"/><linearGradient id="linear-gradient-75" x1="1594.01" y1="707.57" x2="1582.84" y2="707.57" xlink:href="#linear-gradient"/><linearGradient id="linear-gradient-76" x1="1685.55" x2="1633.18" y2="717.61" xlink:href="#linear-gradient-2"/><linearGradient id="linear-gradient-77" x1="1692.73" x2="1681.56" xlink:href="#linear-gradient"/><linearGradient id="linear-gradient-78" x1="1784.26" x2="1731.9" xlink:href="#linear-gradient-2"/><linearGradient id="linear-gradient-79" x1="1791.45" x2="1780.28" xlink:href="#linear-gradient"/><linearGradient id="linear-gradient-80" x1="1882.98" y1="741.65" x2="1830.61" y2="717.61" xlink:href="#linear-gradient-2"/><linearGradient id="linear-gradient-81" x1="1890.17" y1="707.57" x2="1879" y2="707.57" xlink:href="#linear-gradient"/><linearGradient id="linear-gradient-82" x1="1981.7" y1="741.65" x2="1929.33" y2="717.61" xlink:href="#linear-gradient-2"/><linearGradient id="linear-gradient-83" x1="1988.89" x2="1977.72" xlink:href="#linear-gradient"/><linearGradient id="linear-gradient-84" x1="2080.42" x2="2028.05" y2="717.61" xlink:href="#linear-gradient-2"/><linearGradient id="linear-gradient-85" x1="4162.17" y1="707.57" x2="4151" y2="707.57" xlink:href="#linear-gradient"/><linearGradient id="linear-gradient-86" x1="4253.7" x2="4201.33" y2="717.61" xlink:href="#linear-gradient-2"/><linearGradient id="linear-gradient-87" x1="4260.89" x2="4249.72" xlink:href="#linear-gradient"/><linearGradient id="linear-gradient-88" x1="4352.42" x2="4300.05" y2="717.61" xlink:href="#linear-gradient-2"/><linearGradient id="linear-gradient-89" x1="4359.6" x2="4348.43" xlink:href="#linear-gradient"/><linearGradient id="linear-gradient-90" x1="4451.14" y1="741.65" x2="4398.77" y2="717.61" xlink:href="#linear-gradient-2"/><linearGradient id="linear-gradient-91" x1="4458.32" y1="707.57" x2="4447.15" y2="707.57" xlink:href="#linear-gradient"/><linearGradient id="linear-gradient-92" x1="4549.86" x2="4497.49" y2="717.61" xlink:href="#linear-gradient-2"/><linearGradient id="linear-gradient-93" x1="4557.04" x2="4545.87" xlink:href="#linear-gradient"/><linearGradient id="linear-gradient-94" x1="4648.57" y1="741.65" x2="4596.21" y2="717.61" xlink:href="#linear-gradient-2"/><linearGradient id="linear-gradient-95" x1="4655.76" x2="4644.59" xlink:href="#linear-gradient"/><linearGradient id="linear-gradient-96" x1="4747.29" x2="4694.92" y2="717.61" xlink:href="#linear-gradient-2"/><linearGradient id="linear-gradient-97" x1="4754.48" y1="707.57" x2="4743.31" y2="707.57" xlink:href="#linear-gradient"/><linearGradient id="linear-gradient-98" x1="4846.01" x2="4793.64" xlink:href="#linear-gradient-2"/><linearGradient id="linear-gradient-99" x1="4853.2" x2="4842.03" xlink:href="#linear-gradient"/><linearGradient id="linear-gradient-100" x1="4944.73" x2="4892.36" xlink:href="#linear-gradient-2"/><linearGradient id="linear-gradient-101" x1="4951.91" x2="4940.74" xlink:href="#linear-gradient"/><linearGradient id="linear-gradient-102" x1="5043.45" x2="4991.08" y2="717.61" xlink:href="#linear-gradient-2"/><linearGradient id="linear-gradient-103" x1="5050.63" y1="707.57" x2="5039.46" y2="707.57" xlink:href="#linear-gradient"/><linearGradient id="linear-gradient-104" x1="5142.17" x2="5089.8" y2="717.61" xlink:href="#linear-gradient-2"/><linearGradient id="linear-gradient-105" x1="5149.35" x2="5138.18" xlink:href="#linear-gradient"/><linearGradient id="linear-gradient-106" x1="5240.88" y1="741.65" x2="5188.52" y2="717.61" xlink:href="#linear-gradient-2"/><linearGradient id="linear-gradient-107" x1="5248.07" x2="5236.9" xlink:href="#linear-gradient"/><linearGradient id="linear-gradient-108" x1="5339.6" y1="741.65" x2="5287.24" y2="717.61" xlink:href="#linear-gradient-2"/><linearGradient id="linear-gradient-109" x1="5346.79" x2="5335.62" xlink:href="#linear-gradient"/><linearGradient id="linear-gradient-110" x1="5438.32" y1="741.65" x2="5385.95" y2="717.61" xlink:href="#linear-gradient-2"/><linearGradient id="linear-gradient-111" x1="5445.51" y1="707.57" x2="5434.34" y2="707.57" xlink:href="#linear-gradient"/><linearGradient id="linear-gradient-112" x1="5537.04" y1="741.65" x2="5484.67" y2="717.61" xlink:href="#linear-gradient-2"/><linearGradient id="linear-gradient-113" x1="5544.22" x2="5533.05" xlink:href="#linear-gradient"/><linearGradient id="linear-gradient-114" x1="5635.76" x2="5583.39" y2="717.61" xlink:href="#linear-gradient-2"/><linearGradient id="linear-gradient-115" x1="5642.94" x2="5631.77" xlink:href="#linear-gradient"/><linearGradient id="linear-gradient-116" x1="5734.48" x2="5682.11" y2="717.61" xlink:href="#linear-gradient-2"/><linearGradient id="linear-gradient-117" x1="5741.66" y1="707.57" x2="5730.49" y2="707.57" xlink:href="#linear-gradient"/><linearGradient id="linear-gradient-118" x1="5833.19" x2="5780.83" y2="717.61" xlink:href="#linear-gradient-2"/><linearGradient id="linear-gradient-119" x1="5840.38" x2="5829.21" xlink:href="#linear-gradient"/><linearGradient id="linear-gradient-120" x1="5931.91" y1="741.65" x2="5879.55" y2="717.61" xlink:href="#linear-gradient-2"/><linearGradient id="linear-gradient-121" x1="5939.1" x2="5927.93" xlink:href="#linear-gradient"/><linearGradient id="linear-gradient-122" x1="6030.63" y1="741.65" x2="5978.26" y2="717.61" xlink:href="#linear-gradient-2"/><linearGradient id="linear-gradient-123" x1="6037.82" y1="707.57" x2="6026.65" y2="707.57" xlink:href="#linear-gradient"/><linearGradient id="linear-gradient-124" x1="6129.35" y1="741.65" x2="6076.98" y2="717.61" xlink:href="#linear-gradient-2"/><linearGradient id="linear-gradient-125" x1="6136.53" x2="6125.36" xlink:href="#linear-gradient"/><linearGradient id="linear-gradient-126" x1="6228.07" x2="6175.7" xlink:href="#linear-gradient-2"/></defs><g class="cls-130"><g id="Layer_14"><g><g><g><g><rect class="cls-127" x="2073.92" y="607.62" width="100.18" height="199.91"/><rect class="cls-14" x="2073.92" y="607.62" width="14.42" height="199.91"/><rect class="cls-129" x="2167.55" y="607.62" width="6.56" height="199.91"/></g><path class="cls-65" d="M2168.77,626.37l-11.11,143.47-79.74,35.09s92.1,.65,92.41-.22-1.56-178.35-1.56-178.35Z"/><polygon class="cls-128" points="2171.45 638.3 2083.13 639.59 2081.46 608.64 2168.44 612.31 2171.45 638.3"/></g><g><g><rect class="cls-127" x="2172.64" y="607.62" width="100.18" height="199.91"/><rect class="cls-61" x="2172.64" y="607.62" width="14.42" height="199.91"/><rect class="cls-129" x="2266.26" y="607.62" width="6.56" height="199.91"/></g><path class="cls-66" d="M2267.49,626.37l-11.11,143.47-79.74,35.09s92.1,.65,92.41-.22-1.56-178.35-1.56-178.35Z"/><polygon class="cls-128" points="2270.17 638.3 2181.85 639.59 2180.18 608.64 2267.16 612.31 2270.17 638.3"/></g><g><g><rect class="cls-127" x="2271.36" y="607.62" width="100.18" height="199.91"/><rect class="cls-63" x="2271.36" y="607.62" width="14.42" height="199.91"/><rect class="cls-129" x="2364.98" y="607.62" width="6.56" height="199.91"/></g><path class="cls-64" d="M2366.21,626.37l-11.11,143.47-79.74,35.09s92.1,.65,92.41-.22-1.56-178.35-1.56-178.35Z"/><polygon class="cls-128" points="2368.89 638.3 2280.56 639.59 2278.9 608.64 2365.88 612.31 2368.89 638.3"/></g><g><g><rect class="cls-127" x="2370.08" y="607.62" width="100.18" height="199.91"/><rect class="cls-62" x="2370.08" y="607.62" width="14.42" height="199.91"/><rect class="cls-129" x="2463.7" y="607.62" width="6.56" height="199.91"/></g><path class="cls-67" d="M2464.92,626.37l-11.11,143.47-79.74,35.09s92.1,.65,92.41-.22-1.56-178.35-1.56-178.35Z"/><polygon class="cls-128" points="2467.61 638.3 2379.28 639.59 2377.62 608.64 2464.59 612.31 2467.61 638.3"/></g><g><g><rect class="cls-127" x="2468.8" y="607.62" width="100.18" height="199.91"/><rect class="cls-60" x="2468.8" y="607.62" width="14.42" height="199.91"/><rect class="cls-129" x="2562.42" y="607.62" width="6.56" height="199.91"/></g><path class="cls-101" d="M2563.64,626.37l-11.11,143.47-79.74,35.09s92.1,.65,92.41-.22-1.56-178.35-1.56-178.35Z"/><polygon class="cls-128" points="2566.33 638.3 2478 639.59 2476.34 608.64 2563.31 612.31 2566.33 638.3"/></g><g><g><rect class="cls-127" x="2567.52" y="607.62" width="100.18" height="199.91"/><rect class="cls-22" x="2567.52" y="607.62" width="14.42" height="199.91"/><rect class="cls-129" x="2661.14" y="607.62" width="6.56" height="199.91"/></g><path class="cls-100" d="M2662.36,626.37l-11.11,143.47-79.74,35.09s92.1,.65,92.41-.22-1.56-178.35-1.56-178.35Z"/><polygon class="cls-128" points="2665.05 638.3 2576.72 639.59 2575.05 608.64 2662.03 612.31 2665.05 638.3"/></g><g><g><rect class="cls-127" x="2666.23" y="607.62" width="100.18" height="199.91"/><rect class="cls-23" x="2666.23" y="607.62" width="14.42" height="199.91"/><rect class="cls-129" x="2759.86" y="607.62" width="6.56" height="199.91"/></g><path class="cls-97" d="M2761.08,626.37l-11.11,143.47-79.74,35.09s92.1,.65,92.41-.22-1.56-178.35-1.56-178.35Z"/><polygon class="cls-128" points="2763.76 638.3 2675.44 639.59 2673.77 608.64 2760.75 612.31 2763.76 638.3"/></g><g><g><rect class="cls-127" x="2764.95" y="607.62" width="100.18" height="199.91"/><rect class="cls-26" x="2764.95" y="607.62" width="14.42" height="199.91"/><rect class="cls-129" x="2858.57" y="607.62" width="6.56" height="199.91"/></g><path class="cls-95" d="M2859.8,626.37l-11.11,143.47-79.74,35.09s92.1,.65,92.41-.22-1.56-178.35-1.56-178.35Z"/><polygon class="cls-128" points="2862.48 638.3 2774.16 639.59 2772.49 608.64 2859.47 612.31 2862.48 638.3"/></g><g><g><rect class="cls-127" x="2863.67" y="607.62" width="100.18" height="199.91"/><rect class="cls-25" x="2863.67" y="607.62" width="14.42" height="199.91"/><rect class="cls-129" x="2957.29" y="607.62" width="6.56" height="199.91"/></g><path class="cls-98" d="M2958.52,626.37l-11.11,143.47-79.74,35.09s92.1,.65,92.41-.22-1.56-178.35-1.56-178.35Z"/><polygon class="cls-128" points="2961.2 638.3 2872.87 639.59 2871.21 608.64 2958.19 612.31 2961.2 638.3"/></g><g><g><rect class="cls-127" x="2962.39" y="607.62" width="100.18" height="199.91"/><rect class="cls-24" x="2962.39" y="607.62" width="14.42" height="199.91"/><rect class="cls-129" x="3056.01" y="607.62" width="6.56" height="199.91"/></g><path class="cls-99" d="M3057.23,626.37l-11.11,143.47-79.74,35.09s92.1,.65,92.41-.22-1.56-178.35-1.56-178.35Z"/><polygon class="cls-128" points="3059.92 638.3 2971.59 639.59 2969.93 608.64 3056.9 612.31 3059.92 638.3"/></g><g><g><rect class="cls-127" x="3061.11" y="607.62" width="100.18" height="199.91"/><rect class="cls-27" x="3061.11" y="607.62" width="14.42" height="199.91"/><rect class="cls-129" x="3154.73" y="607.62" width="6.56" height="199.91"/></g><path class="cls-96" d="M3155.95,626.37l-11.11,143.47-79.74,35.09s92.1,.65,92.41-.22-1.56-178.35-1.56-178.35Z"/><polygon class="cls-128" points="3158.64 638.3 3070.31 639.59 3068.65 608.64 3155.62 612.31 3158.64 638.3"/></g><g><g><rect class="cls-127" x="3159.83" y="607.62" width="100.18" height="199.91"/><rect class="cls-28" x="3159.83" y="607.62" width="14.42" height="199.91"/><rect class="cls-129" x="3253.45" y="607.62" width="6.56" height="199.91"/></g><path class="cls-93" d="M3254.67,626.37l-11.11,143.47-79.74,35.09s92.1,.65,92.41-.22-1.56-178.35-1.56-178.35Z"/><polygon class="cls-128" points="3257.36 638.3 3169.03 639.59 3167.36 608.64 3254.34 612.31 3257.36 638.3"/></g><g><g><rect class="cls-127" x="3258.55" y="607.62" width="100.18" height="199.91"/><rect class="cls-16" x="3258.55" y="607.62" width="14.42" height="199.91"/><rect class="cls-129" x="3352.17" y="607.62" width="6.56" height="199.91"/></g><path class="cls-94" d="M3353.39,626.37l-11.11,143.47-79.74,35.09s92.1,.65,92.41-.22-1.56-178.35-1.56-178.35Z"/><polygon class="cls-128" points="3356.07 638.3 3267.75 639.59 3266.08 608.64 3353.06 612.31 3356.07 638.3"/></g><g><g><rect class="cls-127" x="3357.26" y="607.62" width="100.18" height="199.91"/><rect class="cls-29" x="3357.26" y="607.62" width="14.42" height="199.91"/><rect class="cls-129" x="3450.88" y="607.62" width="6.56" height="199.91"/></g><path class="cls-105" d="M3452.11,626.37l-11.11,143.47-79.74,35.09s92.1,.65,92.41-.22-1.56-178.35-1.56-178.35Z"/><polygon class="cls-128" points="3454.79 638.3 3366.47 639.59 3364.8 608.64 3451.78 612.31 3454.79 638.3"/></g><g><g><rect class="cls-127" x="3455.98" y="607.62" width="100.18" height="199.91"/><rect class="cls-15" x="3455.98" y="607.62" width="14.42" height="199.91"/><rect class="cls-129" x="3549.6" y="607.62" width="6.56" height="199.91"/></g><path class="cls-104" d="M3550.83,626.37l-11.11,143.47-79.74,35.09s92.1,.65,92.41-.22-1.56-178.35-1.56-178.35Z"/><polygon class="cls-128" points="3553.51 638.3 3465.19 639.59 3463.52 608.64 3550.5 612.31 3553.51 638.3"/></g><g><g><rect class="cls-127" x="3554.7" y="607.62" width="100.18" height="199.91"/><rect class="cls-18" x="3554.7" y="607.62" width="14.42" height="199.91"/><rect class="cls-129" x="3648.32" y="607.62" width="6.56" height="199.91"/></g><path class="cls-103" d="M3649.54,626.37l-11.11,143.47-79.74,35.09s92.1,.65,92.41-.22-1.56-178.35-1.56-178.35Z"/><polygon class="cls-128" points="3652.23 638.3 3563.9 639.59 3562.24 608.64 3649.21 612.31 3652.23 638.3"/></g><g><g><rect class="cls-127" x="3653.42" y="607.62" width="100.18" height="199.91"/><rect class="cls-17" x="3653.42" y="607.62" width="14.42" height="199.91"/><rect class="cls-129" x="3747.04" y="607.62" width="6.56" height="199.91"/></g><path class="cls-102" d="M3748.26,626.37l-11.11,143.47-79.74,35.09s92.1,.65,92.41-.22-1.56-178.35-1.56-178.35Z"/><polygon class="cls-128" points="3750.95 638.3 3662.62 639.59 3660.96 608.64 3747.93 612.31 3750.95 638.3"/></g><g><g><rect class="cls-127" x="3752.14" y="607.62" width="100.18" height="199.91"/><rect class="cls-21" x="3752.14" y="607.62" width="14.42" height="199.91"/><rect class="cls-129" x="3845.76" y="607.62" width="6.56" height="199.91"/></g><path class="cls-106" d="M3846.98,626.37l-11.11,143.47-79.74,35.09s92.1,.65,92.41-.22-1.56-178.35-1.56-178.35Z"/><polygon class="cls-128" points="3849.67 638.3 3761.34 639.59 3759.68 608.64 3846.65 612.31 3849.67 638.3"/></g><g><g><rect class="cls-127" x="3850.86" y="607.62" width="100.18" height="199.91"/><rect class="cls-20" x="3850.86" y="607.62" width="14.42" height="199.91"/><rect class="cls-129" x="3944.48" y="607.62" width="6.56" height="199.91"/></g><path class="cls-107" d="M3945.7,626.37l-11.11,143.47-79.74,35.09s92.1,.65,92.41-.22-1.56-178.35-1.56-178.35Z"/><polygon class="cls-128" points="3948.38 638.3 3860.06 639.59 3858.39 608.64 3945.37 612.31 3948.38 638.3"/></g><g><g><rect class="cls-127" x="3949.57" y="607.62" width="100.18" height="199.91"/><rect class="cls-19" x="3949.57" y="607.62" width="14.42" height="199.91"/><rect class="cls-129" x="4043.19" y="607.62" width="6.56" height="199.91"/></g><path class="cls-111" d="M4044.42,626.37l-11.11,143.47-79.74,35.09s92.1,.65,92.41-.22-1.56-178.35-1.56-178.35Z"/><polygon class="cls-128" points="4047.1 638.3 3958.78 639.59 3957.11 608.64 4044.09 612.31 4047.1 638.3"/></g><g><g><rect class="cls-127" x="4048.29" y="607.62" width="100.18" height="199.91"/><rect class="cls-31" x="4048.29" y="607.62" width="14.42" height="199.91"/><rect class="cls-129" x="4141.91" y="607.62" width="6.56" height="199.91"/></g><path class="cls-112" d="M4143.14,626.37l-11.11,143.47-79.74,35.09s92.1,.65,92.41-.22-1.56-178.35-1.56-178.35Z"/><polygon class="cls-128" points="4145.82 638.3 4057.5 639.59 4055.83 608.64 4142.81 612.31 4145.82 638.3"/></g></g><g><g><g><rect class="cls-127" y="607.62" width="100.18" height="199.91"/><rect class="cls-30" y="607.62" width="14.42" height="199.91"/><rect class="cls-129" x="93.62" y="607.62" width="6.56" height="199.91"/></g><path class="cls-109" d="M94.84,626.37l-11.11,143.47L3.99,804.94s92.1,.65,92.41-.22-1.56-178.35-1.56-178.35Z"/><polygon class="cls-128" points="97.53 638.3 9.2 639.59 7.54 608.64 94.51 612.31 97.53 638.3"/></g><g><g><rect class="cls-127" x="98.72" y="607.62" width="100.18" height="199.91"/><rect class="cls-32" x="98.72" y="607.62" width="14.42" height="199.91"/><rect class="cls-129" x="192.34" y="607.62" width="6.56" height="199.91"/></g><path class="cls-110" d="M193.56,626.37l-11.11,143.47-79.74,35.09s92.1,.65,92.41-.22-1.56-178.35-1.56-178.35Z"/><polygon class="cls-128" points="196.25 638.3 107.92 639.59 106.26 608.64 193.23 612.31 196.25 638.3"/></g><g><g><rect class="cls-127" x="197.44" y="607.62" width="100.18" height="199.91"/><rect class="cls-34" x="197.44" y="607.62" width="14.42" height="199.91"/><rect class="cls-129" x="291.06" y="607.62" width="6.56" height="199.91"/></g><path class="cls-108" d="M292.28,626.37l-11.11,143.47-79.74,35.09s92.1,.65,92.41-.22-1.56-178.35-1.56-178.35Z"/><polygon class="cls-128" points="294.97 638.3 206.64 639.59 204.97 608.64 291.95 612.31 294.97 638.3"/></g><g><g><rect class="cls-127" x="296.16" y="607.62" width="100.18" height="199.91"/><rect class="cls-33" x="296.16" y="607.62" width="14.42" height="199.91"/><rect class="cls-129" x="389.78" y="607.62" width="6.56" height="199.91"/></g><path class="cls-81" d="M391,626.37l-11.11,143.47-79.74,35.09s92.1,.65,92.41-.22-1.56-178.35-1.56-178.35Z"/><polygon class="cls-128" points="393.68 638.3 305.36 639.59 303.69 608.64 390.67 612.31 393.68 638.3"/></g><g><g><rect class="cls-127" x="394.87" y="607.62" width="100.18" height="199.91"/><rect class="cls-37" x="394.87" y="607.62" width="14.42" height="199.91"/><rect class="cls-129" x="488.49" y="607.62" width="6.56" height="199.91"/></g><path class="cls-80" d="M489.72,626.37l-11.11,143.47-79.74,35.09s92.1,.65,92.41-.22-1.56-178.35-1.56-178.35Z"/><polygon class="cls-128" points="492.4 638.3 404.08 639.59 402.41 608.64 489.39 612.31 492.4 638.3"/></g><g><g><rect class="cls-127" x="493.59" y="607.62" width="100.18" height="199.91"/><rect class="cls-39" x="493.59" y="607.62" width="14.42" height="199.91"/><rect class="cls-129" x="587.21" y="607.62" width="6.56" height="199.91"/></g><path class="cls-79" d="M588.44,626.37l-11.11,143.47-79.74,35.09s92.1,.65,92.41-.22-1.56-178.35-1.56-178.35Z"/><polygon class="cls-128" points="591.12 638.3 502.79 639.59 501.13 608.64 588.11 612.31 591.12 638.3"/></g><g><g><rect class="cls-127" x="592.31" y="607.62" width="100.18" height="199.91"/><rect class="cls-38" x="592.31" y="607.62" width="14.42" height="199.91"/><rect class="cls-129" x="685.93" y="607.62" width="6.56" height="199.91"/></g><path class="cls-78" d="M687.15,626.37l-11.11,143.47-79.74,35.09s92.1,.65,92.41-.22-1.56-178.35-1.56-178.35Z"/><polygon class="cls-128" points="689.84 638.3 601.51 639.59 599.85 608.64 686.82 612.31 689.84 638.3"/></g><g><g><rect class="cls-127" x="691.03" y="607.62" width="100.18" height="199.91"/><rect class="cls-36" x="691.03" y="607.62" width="14.42" height="199.91"/><rect class="cls-129" x="784.65" y="607.62" width="6.56" height="199.91"/></g><path class="cls-77" d="M785.87,626.37l-11.11,143.47-79.74,35.09s92.1,.65,92.41-.22-1.56-178.35-1.56-178.35Z"/><polygon class="cls-128" points="788.56 638.3 700.23 639.59 698.57 608.64 785.54 612.31 788.56 638.3"/></g><g><g><rect class="cls-127" x="789.75" y="607.62" width="100.18" height="199.91"/><rect class="cls-35" x="789.75" y="607.62" width="14.42" height="199.91"/><rect class="cls-129" x="883.37" y="607.62" width="6.56" height="199.91"/></g><path class="cls-68" d="M884.59,626.37l-11.11,143.47-79.74,35.09s92.1,.65,92.41-.22-1.56-178.35-1.56-178.35Z"/><polygon class="cls-128" points="887.28 638.3 798.95 639.59 797.29 608.64 884.26 612.31 887.28 638.3"/></g><g><g><rect class="cls-127" x="888.47" y="607.62" width="100.18" height="199.91"/><rect class="cls-40" x="888.47" y="607.62" width="14.42" height="199.91"/><rect class="cls-129" x="982.09" y="607.62" width="6.56" height="199.91"/></g><path class="cls-69" d="M983.31,626.37l-11.11,143.47-79.74,35.09s92.1,.65,92.41-.22-1.56-178.35-1.56-178.35Z"/><polygon class="cls-128" points="985.99 638.3 897.67 639.59 896 608.64 982.98 612.31 985.99 638.3"/></g><g><g><rect class="cls-127" x="987.18" y="607.62" width="100.18" height="199.91"/><rect class="cls-42" x="987.18" y="607.62" width="14.42" height="199.91"/><rect class="cls-129" x="1080.8" y="607.62" width="6.56" height="199.91"/></g><path class="cls-70" d="M1082.03,626.37l-11.11,143.47-79.74,35.09s92.1,.65,92.41-.22-1.56-178.35-1.56-178.35Z"/><polygon class="cls-128" points="1084.71 638.3 996.39 639.59 994.72 608.64 1081.7 612.31 1084.71 638.3"/></g><g><g><rect class="cls-127" x="1085.9" y="607.62" width="100.18" height="199.91"/><rect class="cls-41" x="1085.9" y="607.62" width="14.42" height="199.91"/><rect class="cls-129" x="1179.52" y="607.62" width="6.56" height="199.91"/></g><path class="cls-71" d="M1180.75,626.37l-11.11,143.47-79.74,35.09s92.1,.65,92.41-.22-1.56-178.35-1.56-178.35Z"/><polygon class="cls-128" points="1183.43 638.3 1095.11 639.59 1093.44 608.64 1180.42 612.31 1183.43 638.3"/></g><g><g><rect class="cls-127" x="1184.62" y="607.62" width="100.18" height="199.91"/><rect class="cls-46" x="1184.62" y="607.62" width="14.42" height="199.91"/><rect class="cls-129" x="1278.24" y="607.62" width="6.56" height="199.91"/></g><path class="cls-75" d="M1279.46,626.37l-11.11,143.47-79.74,35.09s92.1,.65,92.41-.22-1.56-178.35-1.56-178.35Z"/><polygon class="cls-128" points="1282.15 638.3 1193.82 639.59 1192.16 608.64 1279.13 612.31 1282.15 638.3"/></g><g><g><rect class="cls-127" x="1283.34" y="607.62" width="100.18" height="199.91"/><rect class="cls-45" x="1283.34" y="607.62" width="14.42" height="199.91"/><rect class="cls-129" x="1376.96" y="607.62" width="6.56" height="199.91"/></g><path class="cls-72" d="M1378.18,626.37l-11.11,143.47-79.74,35.09s92.1,.65,92.41-.22-1.56-178.35-1.56-178.35Z"/><polygon class="cls-128" points="1380.87 638.3 1292.54 639.59 1290.88 608.64 1377.85 612.31 1380.87 638.3"/></g><g><g><rect class="cls-127" x="1382.06" y="607.62" width="100.18" height="199.91"/><rect class="cls-48" x="1382.06" y="607.62" width="14.42" height="199.91"/><rect class="cls-129" x="1475.68" y="607.62" width="6.56" height="199.91"/></g><path class="cls-76" d="M1476.9,626.37l-11.11,143.47-79.74,35.09s92.1,.65,92.41-.22-1.56-178.35-1.56-178.35Z"/><polygon class="cls-128" points="1479.59 638.3 1391.26 639.59 1389.6 608.64 1476.57 612.31 1479.59 638.3"/></g><g><g><rect class="cls-127" x="1480.78" y="607.62" width="100.18" height="199.91"/><rect class="cls-47" x="1480.78" y="607.62" width="14.42" height="199.91"/><rect class="cls-129" x="1574.4" y="607.62" width="6.56" height="199.91"/></g><path class="cls-73" d="M1575.62,626.37l-11.11,143.47-79.74,35.09s92.1,.65,92.41-.22-1.56-178.35-1.56-178.35Z"/><polygon class="cls-128" points="1578.31 638.3 1489.98 639.59 1488.31 608.64 1575.29 612.31 1578.31 638.3"/></g><g><g><rect class="cls-127" x="1579.49" y="607.62" width="100.18" height="199.91"/><rect class="cls-49" x="1579.49" y="607.62" width="14.42" height="199.91"/><rect class="cls-129" x="1673.11" y="607.62" width="6.56" height="199.91"/></g><path class="cls-74" d="M1674.34,626.37l-11.11,143.47-79.74,35.09s92.1,.65,92.41-.22-1.56-178.35-1.56-178.35Z"/><polygon class="cls-128" points="1677.02 638.3 1588.7 639.59 1587.03 608.64 1674.01 612.31 1677.02 638.3"/></g><g><g><rect class="cls-127" x="1678.21" y="607.62" width="100.18" height="199.91"/><rect class="cls-43" x="1678.21" y="607.62" width="14.42" height="199.91"/><rect class="cls-129" x="1771.83" y="607.62" width="6.56" height="199.91"/></g><path class="cls-82" d="M1773.06,626.37l-11.11,143.47-79.74,35.09s92.1,.65,92.41-.22-1.56-178.35-1.56-178.35Z"/><polygon class="cls-128" points="1775.74 638.3 1687.42 639.59 1685.75 608.64 1772.73 612.31 1775.74 638.3"/></g><g><g><rect class="cls-127" x="1776.93" y="607.62" width="100.18" height="199.91"/><rect class="cls-44" x="1776.93" y="607.62" width="14.42" height="199.91"/><rect class="cls-129" x="1870.55" y="607.62" width="6.56" height="199.91"/></g><path class="cls-86" d="M1871.77,626.37l-11.11,143.47-79.74,35.09s92.1,.65,92.41-.22-1.56-178.35-1.56-178.35Z"/><polygon class="cls-128" points="1874.46 638.3 1786.13 639.59 1784.47 608.64 1871.44 612.31 1874.46 638.3"/></g><g><g><rect class="cls-127" x="1875.65" y="607.62" width="100.18" height="199.91"/><rect class="cls-54" x="1875.65" y="607.62" width="14.42" height="199.91"/><rect class="cls-129" x="1969.27" y="607.62" width="6.56" height="199.91"/></g><path class="cls-83" d="M1970.49,626.37l-11.11,143.47-79.74,35.09s92.1,.65,92.41-.22-1.56-178.35-1.56-178.35Z"/><polygon class="cls-128" points="1973.18 638.3 1884.85 639.59 1883.19 608.64 1970.16 612.31 1973.18 638.3"/></g><g><g><rect class="cls-127" x="1974.37" y="607.62" width="100.18" height="199.91"/><rect class="cls-50" x="1974.37" y="607.62" width="14.42" height="199.91"/><rect class="cls-129" x="2067.99" y="607.62" width="6.56" height="199.91"/></g><path class="cls-84" d="M2069.21,626.37l-11.11,143.47-79.74,35.09s92.1,.65,92.41-.22-1.56-178.35-1.56-178.35Z"/><polygon class="cls-128" points="2071.9 638.3 1983.57 639.59 1981.91 608.64 2068.88 612.31 2071.9 638.3"/></g></g><g><g><g><rect class="cls-127" x="4147.65" y="607.62" width="100.18" height="199.91"/><rect class="cls-51" x="4147.65" y="607.62" width="14.42" height="199.91"/><rect class="cls-129" x="4241.27" y="607.62" width="6.56" height="199.91"/></g><path class="cls-87" d="M4242.49,626.37l-11.11,143.47-79.74,35.09s92.1,.65,92.41-.22-1.56-178.35-1.56-178.35Z"/><polygon class="cls-128" points="4245.18 638.3 4156.85 639.59 4155.19 608.64 4242.16 612.31 4245.18 638.3"/></g><g><g><rect class="cls-127" x="4246.37" y="607.62" width="100.18" height="199.91"/><rect class="cls-52" x="4246.37" y="607.62" width="14.42" height="199.91"/><rect class="cls-129" x="4339.99" y="607.62" width="6.56" height="199.91"/></g><path class="cls-85" d="M4341.21,626.37l-11.11,143.47-79.74,35.09s92.1,.65,92.41-.22-1.56-178.35-1.56-178.35Z"/><polygon class="cls-128" points="4343.9 638.3 4255.57 639.59 4253.91 608.64 4340.88 612.31 4343.9 638.3"/></g><g><g><rect class="cls-127" x="4345.09" y="607.62" width="100.18" height="199.91"/><rect class="cls-53" x="4345.09" y="607.62" width="14.42" height="199.91"/><rect class="cls-129" x="4438.71" y="607.62" width="6.56" height="199.91"/></g><path class="cls-90" d="M4439.93,626.37l-11.11,143.47-79.74,35.09s92.1,.65,92.41-.22-1.56-178.35-1.56-178.35Z"/><polygon class="cls-128" points="4442.62 638.3 4354.29 639.59 4352.62 608.64 4439.6 612.31 4442.62 638.3"/></g><g><g><rect class="cls-127" x="4443.8" y="607.62" width="100.18" height="199.91"/><rect class="cls-59" x="4443.8" y="607.62" width="14.42" height="199.91"/><rect class="cls-129" x="4537.42" y="607.62" width="6.56" height="199.91"/></g><path class="cls-89" d="M4538.65,626.37l-11.11,143.47-79.74,35.09s92.1,.65,92.41-.22-1.56-178.35-1.56-178.35Z"/><polygon class="cls-128" points="4541.33 638.3 4453.01 639.59 4451.34 608.64 4538.32 612.31 4541.33 638.3"/></g><g><g><rect class="cls-127" x="4542.52" y="607.62" width="100.18" height="199.91"/><rect class="cls-55" x="4542.52" y="607.62" width="14.42" height="199.91"/><rect class="cls-129" x="4636.14" y="607.62" width="6.56" height="199.91"/></g><path class="cls-88" d="M4637.37,626.37l-11.11,143.47-79.74,35.09s92.1,.65,92.41-.22-1.56-178.35-1.56-178.35Z"/><polygon class="cls-128" points="4640.05 638.3 4551.73 639.59 4550.06 608.64 4637.04 612.31 4640.05 638.3"/></g><g><g><rect class="cls-127" x="4641.24" y="607.62" width="100.18" height="199.91"/><rect class="cls-58" x="4641.24" y="607.62" width="14.42" height="199.91"/><rect class="cls-129" x="4734.86" y="607.62" width="6.56" height="199.91"/></g><path class="cls-92" d="M4736.08,626.37l-11.11,143.47-79.74,35.09s92.1,.65,92.41-.22-1.56-178.35-1.56-178.35Z"/><polygon class="cls-128" points="4738.77 638.3 4650.44 639.59 4648.78 608.64 4735.75 612.31 4738.77 638.3"/></g><g><g><rect class="cls-127" x="4739.96" y="607.62" width="100.18" height="199.91"/><rect class="cls-56" x="4739.96" y="607.62" width="14.42" height="199.91"/><rect class="cls-129" x="4833.58" y="607.62" width="6.56" height="199.91"/></g><path class="cls-91" d="M4834.8,626.37l-11.11,143.47-79.74,35.09s92.1,.65,92.41-.22-1.56-178.35-1.56-178.35Z"/><polygon class="cls-128" points="4837.49 638.3 4749.16 639.59 4747.5 608.64 4834.47 612.31 4837.49 638.3"/></g><g><g><rect class="cls-127" x="4838.68" y="607.62" width="100.18" height="199.91"/><rect class="cls-57" x="4838.68" y="607.62" width="14.42" height="199.91"/><rect class="cls-129" x="4932.3" y="607.62" width="6.56" height="199.91"/></g><path class="cls-113" d="M4933.52,626.37l-11.11,143.47-79.74,35.09s92.1,.65,92.41-.22-1.56-178.35-1.56-178.35Z"/><polygon class="cls-128" points="4936.21 638.3 4847.88 639.59 4846.22 608.64 4933.19 612.31 4936.21 638.3"/></g><g><g><rect class="cls-127" x="4937.4" y="607.62" width="100.18" height="199.91"/><rect class="cls-2" x="4937.4" y="607.62" width="14.42" height="199.91"/><rect class="cls-129" x="5031.02" y="607.62" width="6.56" height="199.91"/></g><path class="cls-118" d="M5032.24,626.37l-11.11,143.47-79.74,35.09s92.1,.65,92.41-.22-1.56-178.35-1.56-178.35Z"/><polygon class="cls-128" points="5034.93 638.3 4946.6 639.59 4944.93 608.64 5031.91 612.31 5034.93 638.3"/></g><g><g><rect class="cls-127" x="5036.11" y="607.62" width="100.18" height="199.91"/><rect class="cls-9" x="5036.11" y="607.62" width="14.42" height="199.91"/><rect class="cls-129" x="5129.73" y="607.62" width="6.56" height="199.91"/></g><path class="cls-119" d="M5130.96,626.37l-11.11,143.47-79.74,35.09s92.1,.65,92.41-.22-1.56-178.35-1.56-178.35Z"/><polygon class="cls-128" points="5133.64 638.3 5045.32 639.59 5043.65 608.64 5130.63 612.31 5133.64 638.3"/></g><g><g><rect class="cls-127" x="5134.83" y="607.62" width="100.18" height="199.91"/><rect class="cls-8" x="5134.83" y="607.62" width="14.42" height="199.91"/><rect class="cls-129" x="5228.45" y="607.62" width="6.56" height="199.91"/></g><path class="cls-114" d="M5229.68,626.37l-11.11,143.47-79.74,35.09s92.1,.65,92.41-.22-1.56-178.35-1.56-178.35Z"/><polygon class="cls-128" points="5232.36 638.3 5144.04 639.59 5142.37 608.64 5229.35 612.31 5232.36 638.3"/></g><g><g><rect class="cls-127" x="5233.55" y="607.62" width="100.18" height="199.91"/><rect class="cls-6" x="5233.55" y="607.62" width="14.42" height="199.91"/><rect class="cls-129" x="5327.17" y="607.62" width="6.56" height="199.91"/></g><path class="cls-117" d="M5328.39,626.37l-11.11,143.47-79.74,35.09s92.1,.65,92.41-.22-1.56-178.35-1.56-178.35Z"/><polygon class="cls-128" points="5331.08 638.3 5242.75 639.59 5241.09 608.64 5328.06 612.31 5331.08 638.3"/></g><g><g><rect class="cls-127" x="5332.27" y="607.62" width="100.18" height="199.91"/><rect class="cls-7" x="5332.27" y="607.62" width="14.42" height="199.91"/><rect class="cls-129" x="5425.89" y="607.62" width="6.56" height="199.91"/></g><path class="cls-121" d="M5427.11,626.37l-11.11,143.47-79.74,35.09s92.1,.65,92.41-.22-1.56-178.35-1.56-178.35Z"/><polygon class="cls-128" points="5429.8 638.3 5341.47 639.59 5339.81 608.64 5426.78 612.31 5429.8 638.3"/></g><g><g><rect class="cls-127" x="5430.99" y="607.62" width="100.18" height="199.91"/><rect class="cls-11" x="5430.99" y="607.62" width="14.42" height="199.91"/><rect class="cls-129" x="5524.61" y="607.62" width="6.56" height="199.91"/></g><path class="cls-116" d="M5525.83,626.37l-11.11,143.47-79.74,35.09s92.1,.65,92.41-.22-1.56-178.35-1.56-178.35Z"/><polygon class="cls-128" points="5528.52 638.3 5440.19 639.59 5438.53 608.64 5525.5 612.31 5528.52 638.3"/></g><g><g><rect class="cls-127" x="5529.71" y="607.62" width="100.18" height="199.91"/><rect class="cls-12" x="5529.71" y="607.62" width="14.42" height="199.91"/><rect class="cls-129" x="5623.33" y="607.62" width="6.56" height="199.91"/></g><path class="cls-120" d="M5624.55,626.37l-11.11,143.47-79.74,35.09s92.1,.65,92.41-.22-1.56-178.35-1.56-178.35Z"/><polygon class="cls-128" points="5627.24 638.3 5538.91 639.59 5537.24 608.64 5624.22 612.31 5627.24 638.3"/></g><g><g><rect class="cls-127" x="5628.42" y="607.62" width="100.18" height="199.91"/><rect class="cls-13" x="5628.42" y="607.62" width="14.42" height="199.91"/><rect class="cls-129" x="5722.05" y="607.62" width="6.56" height="199.91"/></g><path class="cls-122" d="M5723.27,626.37l-11.11,143.47-79.74,35.09s92.1,.65,92.41-.22-1.56-178.35-1.56-178.35Z"/><polygon class="cls-128" points="5725.95 638.3 5637.63 639.59 5635.96 608.64 5722.94 612.31 5725.95 638.3"/></g><g><g><rect class="cls-127" x="5727.14" y="607.62" width="100.18" height="199.91"/><rect class="cls-10" x="5727.14" y="607.62" width="14.42" height="199.91"/><rect class="cls-129" x="5820.76" y="607.62" width="6.56" height="199.91"/></g><path class="cls-115" d="M5821.99,626.37l-11.11,143.47-79.74,35.09s92.1,.65,92.41-.22-1.56-178.35-1.56-178.35Z"/><polygon class="cls-128" points="5824.67 638.3 5736.35 639.59 5734.68 608.64 5821.66 612.31 5824.67 638.3"/></g><g><g><rect class="cls-127" x="5825.86" y="607.62" width="100.18" height="199.91"/><rect class="cls-5" x="5825.86" y="607.62" width="14.42" height="199.91"/><rect class="cls-129" x="5919.48" y="607.62" width="6.56" height="199.91"/></g><path class="cls-124" d="M5920.71,626.37l-11.11,143.47-79.74,35.09s92.1,.65,92.41-.22-1.56-178.35-1.56-178.35Z"/><polygon class="cls-128" points="5923.39 638.3 5835.06 639.59 5833.4 608.64 5920.37 612.31 5923.39 638.3"/></g><g><g><rect class="cls-127" x="5924.58" y="607.62" width="100.18" height="199.91"/><rect class="cls-4" x="5924.58" y="607.62" width="14.42" height="199.91"/><rect class="cls-129" x="6018.2" y="607.62" width="6.56" height="199.91"/></g><path class="cls-123" d="M6019.42,626.37l-11.11,143.47-79.74,35.09s92.1,.65,92.41-.22-1.56-178.35-1.56-178.35Z"/><polygon class="cls-128" points="6022.11 638.3 5933.78 639.59 5932.12 608.64 6019.09 612.31 6022.11 638.3"/></g><g><g><rect class="cls-127" x="6023.3" y="607.62" width="100.18" height="199.91"/><rect class="cls-3" x="6023.3" y="607.62" width="14.42" height="199.91"/><rect class="cls-129" x="6116.92" y="607.62" width="6.56" height="199.91"/></g><path class="cls-125" d="M6118.14,626.37l-11.11,143.47-79.74,35.09s92.1,.65,92.41-.22c.31-.87-1.56-178.35-1.56-178.35Z"/><polygon class="cls-128" points="6120.83 638.3 6032.5 639.59 6030.84 608.64 6117.81 612.31 6120.83 638.3"/></g><g><g><rect class="cls-127" x="6122.02" y="607.62" width="100.18" height="199.91"/><rect class="cls-1" x="6122.02" y="607.62" width="14.42" height="199.91"/><rect class="cls-129" x="6215.64" y="607.62" width="6.56" height="199.91"/></g><path class="cls-126" d="M6216.86,626.37l-11.11,143.47-79.74,35.09s92.1,.65,92.41-.22-1.56-178.35-1.56-178.35Z"/><polygon class="cls-128" points="6219.55 638.3 6131.22 639.59 6129.55 608.64 6216.53 612.31 6219.55 638.3"/></g></g></g></g></g></svg>