<svg viewBox="0 0 6222.19 1082.63" xmlns="http://www.w3.org/2000/svg" xmlns:xlink="http://www.w3.org/1999/xlink"><linearGradient id="a" gradientUnits="userSpaceOnUse" x1="2088.44" x2="2077.27" y1="707.57" y2="707.57"><stop offset="0" stop-color="#5b4677"/><stop offset="1" stop-color="#f6e2f2"/></linearGradient><linearGradient id="b" gradientUnits="userSpaceOnUse" x1="2179.98" x2="2127.61" y1="741.65" y2="717.61"><stop offset="0" stop-color="#fff"/><stop offset=".19" stop-color="#fcfcfc"/><stop offset=".32" stop-color="#f2f2f2"/><stop offset=".44" stop-color="#e3e3e3"/><stop offset=".54" stop-color="#cdcdcd"/><stop offset=".64" stop-color="#b0b0b0"/><stop offset=".74" stop-color="#8d8d8d"/><stop offset=".83" stop-color="#646464"/><stop offset=".92" stop-color="#353535"/><stop offset="1"/></linearGradient><linearGradient id="c" x1="2187.16" x2="2175.99" xlink:href="#a" y1="707.57" y2="707.57"/><linearGradient id="d" x1="2278.7" x2="2226.33" xlink:href="#b" y2="717.61"/><linearGradient id="e" x1="2285.88" x2="2274.71" xlink:href="#a"/><linearGradient id="f" x1="2377.41" x2="2325.05" xlink:href="#b"/><linearGradient id="g" x1="2384.6" x2="2373.43" xlink:href="#a"/><linearGradient id="h" x1="2476.13" x2="2423.76" xlink:href="#b"/><linearGradient id="i" x1="2483.32" x2="2472.15" xlink:href="#a" y1="707.57" y2="707.57"/><linearGradient id="j" x1="2574.85" x2="2522.48" xlink:href="#b" y2="717.61"/><linearGradient id="k" x1="2582.04" x2="2570.87" xlink:href="#a"/><linearGradient id="l" x1="2673.57" x2="2621.2" xlink:href="#b" y2="717.61"/><linearGradient id="m" x1="2680.75" x2="2669.58" xlink:href="#a"/><linearGradient id="n" x1="2772.29" x2="2719.92" xlink:href="#b" y1="741.65" y2="717.61"/><linearGradient id="o" x1="2779.47" x2="2768.3" xlink:href="#a"/><linearGradient id="p" x1="2871.01" x2="2818.64" xlink:href="#b" y2="717.61"/><linearGradient id="q" x1="2878.19" x2="2867.02" xlink:href="#a" y1="707.57" y2="707.57"/><linearGradient id="r" x1="2969.72" x2="2917.36" xlink:href="#b" y2="717.61"/><linearGradient id="s" x1="2976.91" x2="2965.74" xlink:href="#a"/><linearGradient id="t" x1="3068.44" x2="3016.07" xlink:href="#b" y2="717.61"/><linearGradient id="u" x1="3075.63" x2="3064.46" xlink:href="#a"/><linearGradient id="v" x1="3167.16" x2="3114.79" xlink:href="#b"/><linearGradient id="w" x1="3174.35" x2="3163.18" xlink:href="#a" y1="707.57" y2="707.57"/><linearGradient id="x" x1="3265.88" x2="3213.51" xlink:href="#b" y1="741.65" y2="717.61"/><linearGradient id="y" x1="3273.06" x2="3261.89" xlink:href="#a"/><linearGradient id="z" x1="3364.6" x2="3312.23" xlink:href="#b" y2="717.61"/><linearGradient id="A" x1="3371.78" x2="3360.61" xlink:href="#a" y1="707.57" y2="707.57"/><linearGradient id="B" x1="3463.32" x2="3410.95" xlink:href="#b" y1="741.65" y2="717.61"/><linearGradient id="C" x1="3470.5" x2="3459.33" xlink:href="#a" y1="707.57" y2="707.57"/><linearGradient id="D" x1="3562.03" x2="3509.67" xlink:href="#b"/><linearGradient id="E" x1="3569.22" x2="3558.05" xlink:href="#a"/><linearGradient id="F" x1="3660.75" x2="3608.38" xlink:href="#b" y2="717.61"/><linearGradient id="G" x1="3667.94" x2="3656.77" xlink:href="#a"/><linearGradient id="H" x1="3759.47" x2="3707.1" xlink:href="#b" y2="717.61"/><linearGradient id="I" x1="3766.66" x2="3755.49" xlink:href="#a" y1="707.57" y2="707.57"/><linearGradient id="J" x1="3858.19" x2="3805.82" xlink:href="#b" y2="717.61"/><linearGradient id="K" x1="3865.37" x2="3854.2" xlink:href="#a"/><linearGradient id="L" x1="3956.91" x2="3904.54" xlink:href="#b"/><linearGradient id="M" x1="3964.09" x2="3952.92" xlink:href="#a"/><linearGradient id="N" x1="4055.63" x2="4003.26" xlink:href="#b" y1="741.65" y2="717.61"/><linearGradient id="O" x1="4062.81" x2="4051.64" xlink:href="#a"/><linearGradient id="P" x1="4154.34" x2="4101.98" xlink:href="#b"/><linearGradient id="Q" x1="14.52" x2="3.35" xlink:href="#a"/><linearGradient id="R" x1="106.05" x2="53.68" xlink:href="#b"/><linearGradient id="S" x1="113.24" x2="102.07" xlink:href="#a"/><linearGradient id="T" x1="204.77" x2="152.4" xlink:href="#b"/><linearGradient id="U" x1="211.96" x2="200.79" xlink:href="#a"/><linearGradient id="V" x1="303.49" x2="251.12" xlink:href="#b"/><linearGradient id="W" x1="310.67" x2="299.5" xlink:href="#a" y1="707.57" y2="707.57"/><linearGradient id="X" x1="402.21" x2="349.84" xlink:href="#b" y2="717.61"/><linearGradient id="Y" x1="409.39" x2="398.22" xlink:href="#a"/><linearGradient id="Z" x1="500.93" x2="448.56" xlink:href="#b"/><linearGradient id="aa" x1="508.11" x2="496.94" xlink:href="#a"/><linearGradient id="ab" x1="599.64" x2="547.28" xlink:href="#b" y2="717.61"/><linearGradient id="ac" x1="606.83" x2="595.66" xlink:href="#a" y1="707.57" y2="707.57"/><linearGradient id="ad" x1="698.36" x2="645.99" xlink:href="#b" y2="717.61"/><linearGradient id="ae" x1="705.55" x2="694.38" xlink:href="#a"/><linearGradient id="af" x1="797.08" x2="744.71" xlink:href="#b" y2="717.61"/><linearGradient id="ag" x1="804.27" x2="793.1" xlink:href="#a"/><linearGradient id="ah" x1="895.8" x2="843.43" xlink:href="#b" y2="717.61"/><linearGradient id="ai" x1="902.98" x2="891.81" xlink:href="#a" y1="707.57" y2="707.57"/><linearGradient id="aj" x1="994.52" x2="942.15" xlink:href="#b"/><linearGradient id="ak" x1="1001.7" x2="990.53" xlink:href="#a"/><linearGradient id="al" x1="1093.24" x2="1040.87" xlink:href="#b" y2="717.61"/><linearGradient id="am" x1="1100.42" x2="1089.25" xlink:href="#a"/><linearGradient id="an" x1="1191.95" x2="1139.59" xlink:href="#b" y2="717.61"/><linearGradient id="ao" x1="1199.14" x2="1187.97" xlink:href="#a" y1="707.57" y2="707.57"/><linearGradient id="ap" x1="1290.67" x2="1238.3" xlink:href="#b" y2="717.61"/><linearGradient id="aq" x1="1297.86" x2="1286.69" xlink:href="#a"/><linearGradient id="ar" x1="1389.39" x2="1337.02" xlink:href="#b" y1="741.65" y2="717.61"/><linearGradient id="as" x1="1396.58" x2="1385.41" xlink:href="#a"/><linearGradient id="at" x1="1488.11" x2="1435.74" xlink:href="#b" y2="717.61"/><linearGradient id="au" x1="1495.29" x2="1484.12" xlink:href="#a" y1="707.57" y2="707.57"/><linearGradient id="av" x1="1586.83" x2="1534.46" xlink:href="#b" y2="717.61"/><linearGradient id="aw" x1="1594.01" x2="1582.84" xlink:href="#a" y1="707.57" y2="707.57"/><linearGradient id="ax" x1="1685.55" x2="1633.18" xlink:href="#b" y2="717.61"/><linearGradient id="ay" x1="1692.73" x2="1681.56" xlink:href="#a"/><linearGradient id="az" x1="1784.26" x2="1731.9" xlink:href="#b"/><linearGradient id="aA" x1="1791.45" x2="1780.28" xlink:href="#a"/><linearGradient id="aB" x1="1882.98" x2="1830.61" xlink:href="#b" y1="741.65" y2="717.61"/><linearGradient id="aC" x1="1890.17" x2="1879" xlink:href="#a" y1="707.57" y2="707.57"/><linearGradient id="aD" x1="1981.7" x2="1929.33" xlink:href="#b" y1="741.65" y2="717.61"/><linearGradient id="aE" x1="1988.89" x2="1977.72" xlink:href="#a"/><linearGradient id="aF" x1="2080.42" x2="2028.05" xlink:href="#b" y2="717.61"/><linearGradient id="aG" x1="4162.17" x2="4151" xlink:href="#a" y1="707.57" y2="707.57"/><linearGradient id="aH" x1="4253.7" x2="4201.33" xlink:href="#b" y2="717.61"/><linearGradient id="aI" x1="4260.89" x2="4249.72" xlink:href="#a"/><linearGradient id="aJ" x1="4352.42" x2="4300.05" xlink:href="#b" y2="717.61"/><linearGradient id="aK" x1="4359.6" x2="4348.43" xlink:href="#a"/><linearGradient id="aL" x1="4451.14" x2="4398.77" xlink:href="#b" y1="741.65" y2="717.61"/><linearGradient id="aM" x1="4458.32" x2="4447.15" xlink:href="#a" y1="707.57" y2="707.57"/><linearGradient id="aN" x1="4549.86" x2="4497.49" xlink:href="#b" y2="717.61"/><linearGradient id="aO" x1="4557.04" x2="4545.87" xlink:href="#a"/><linearGradient id="aP" x1="4648.57" x2="4596.21" xlink:href="#b" y1="741.65" y2="717.61"/><linearGradient id="aQ" x1="4655.76" x2="4644.59" xlink:href="#a"/><linearGradient id="aR" x1="4747.29" x2="4694.92" xlink:href="#b" y2="717.61"/><linearGradient id="aS" x1="4754.48" x2="4743.31" xlink:href="#a" y1="707.57" y2="707.57"/><linearGradient id="aT" x1="4846.01" x2="4793.64" xlink:href="#b"/><linearGradient id="aU" x1="4853.2" x2="4842.03" xlink:href="#a"/><linearGradient id="aV" x1="4944.73" x2="4892.36" xlink:href="#b"/><linearGradient id="aW" x1="4951.91" x2="4940.74" xlink:href="#a"/><linearGradient id="aX" x1="5043.45" x2="4991.08" xlink:href="#b" y2="717.61"/><linearGradient id="aY" x1="5050.63" x2="5039.46" xlink:href="#a" y1="707.57" y2="707.57"/><linearGradient id="aZ" x1="5142.17" x2="5089.8" xlink:href="#b" y2="717.61"/><linearGradient id="a0" x1="5149.35" x2="5138.18" xlink:href="#a"/><linearGradient id="a1" x1="5240.88" x2="5188.52" xlink:href="#b" y1="741.65" y2="717.61"/><linearGradient id="a2" x1="5248.07" x2="5236.9" xlink:href="#a"/><linearGradient id="a3" x1="5339.6" x2="5287.24" xlink:href="#b" y1="741.65" y2="717.61"/><linearGradient id="a4" x1="5346.79" x2="5335.62" xlink:href="#a"/><linearGradient id="a5" x1="5438.32" x2="5385.95" xlink:href="#b" y1="741.65" y2="717.61"/><linearGradient id="a6" x1="5445.51" x2="5434.34" xlink:href="#a" y1="707.57" y2="707.57"/><linearGradient id="a7" x1="5537.04" x2="5484.67" xlink:href="#b" y1="741.65" y2="717.61"/><linearGradient id="a8" x1="5544.22" x2="5533.05" xlink:href="#a"/><linearGradient id="a9" x1="5635.76" x2="5583.39" xlink:href="#b" y2="717.61"/><linearGradient id="ba" x1="5642.94" x2="5631.77" xlink:href="#a"/><linearGradient id="bb" x1="5734.48" x2="5682.11" xlink:href="#b" y2="717.61"/><linearGradient id="bc" x1="5741.66" x2="5730.49" xlink:href="#a" y1="707.57" y2="707.57"/><linearGradient id="bd" x1="5833.19" x2="5780.83" xlink:href="#b" y2="717.61"/><linearGradient id="be" x1="5840.38" x2="5829.21" xlink:href="#a"/><linearGradient id="bf" x1="5931.91" x2="5879.55" xlink:href="#b" y1="741.65" y2="717.61"/><linearGradient id="bg" x1="5939.1" x2="5927.93" xlink:href="#a"/><linearGradient id="bh" x1="6030.63" x2="5978.26" xlink:href="#b" y1="741.65" y2="717.61"/><linearGradient id="bi" x1="6037.82" x2="6026.65" xlink:href="#a" y1="707.57" y2="707.57"/><linearGradient id="bj" x1="6129.35" x2="6076.98" xlink:href="#b" y1="741.65" y2="717.61"/><linearGradient id="bk" x1="6136.53" x2="6125.36" xlink:href="#a"/><linearGradient id="bl" x1="6228.07" x2="6175.7" xlink:href="#b"/><path d="m2073.92 607.62h100.18v199.91h-100.18z" fill="#6d49a5"/><path d="m2073.92 607.62h14.42v199.91h-14.42z" fill="url(#a)" opacity=".39"/><path d="m2167.55 607.62h6.56v199.91h-6.56z" fill="#020202" opacity=".4"/><path d="m2168.77 626.37-11.11 143.47-79.74 35.09s92.1.65 92.41-.22-1.56-178.35-1.56-178.35z" fill="url(#b)" opacity=".2"/><path d="m2171.45 638.3-88.32 1.29-1.67-30.95 86.98 3.67z" fill="#b195cb" opacity=".4"/><path d="m2172.64 607.62h100.18v199.91h-100.18z" fill="#6d49a5"/><path d="m2172.64 607.62h14.42v199.91h-14.42z" fill="url(#c)" opacity=".39"/><path d="m2266.26 607.62h6.56v199.91h-6.56z" fill="#020202" opacity=".4"/><path d="m2267.49 626.37-11.11 143.47-79.74 35.09s92.1.65 92.41-.22-1.56-178.35-1.56-178.35z" fill="url(#d)" opacity=".2"/><path d="m2270.17 638.3-88.32 1.29-1.67-30.95 86.98 3.67z" fill="#b195cb" opacity=".4"/><path d="m2271.36 607.62h100.18v199.91h-100.18z" fill="#6d49a5"/><path d="m2271.36 607.62h14.42v199.91h-14.42z" fill="url(#e)" opacity=".39"/><path d="m2364.98 607.62h6.56v199.91h-6.56z" fill="#020202" opacity=".4"/><path d="m2366.21 626.37-11.11 143.47-79.74 35.09s92.1.65 92.41-.22-1.56-178.35-1.56-178.35z" fill="url(#f)" opacity=".2"/><path d="m2368.89 638.3-88.33 1.29-1.66-30.95 86.98 3.67z" fill="#b195cb" opacity=".4"/><path d="m2370.08 607.62h100.18v199.91h-100.18z" fill="#6d49a5"/><path d="m2370.08 607.62h14.42v199.91h-14.42z" fill="url(#g)" opacity=".39"/><path d="m2463.7 607.62h6.56v199.91h-6.56z" fill="#020202" opacity=".4"/><path d="m2464.92 626.37-11.11 143.47-79.74 35.09s92.1.65 92.41-.22-1.56-178.35-1.56-178.35z" fill="url(#h)" opacity=".2"/><path d="m2467.61 638.3-88.33 1.29-1.66-30.95 86.97 3.67z" fill="#b195cb" opacity=".4"/><path d="m2468.8 607.62h100.18v199.91h-100.18z" fill="#6d49a5"/><path d="m2468.8 607.62h14.42v199.91h-14.42z" fill="url(#i)" opacity=".39"/><path d="m2562.42 607.62h6.56v199.91h-6.56z" fill="#020202" opacity=".4"/><path d="m2563.64 626.37-11.11 143.47-79.74 35.09s92.1.65 92.41-.22-1.56-178.35-1.56-178.35z" fill="url(#j)" opacity=".2"/><path d="m2566.33 638.3-88.33 1.29-1.66-30.95 86.97 3.67z" fill="#b195cb" opacity=".4"/><path d="m2567.52 607.62h100.18v199.91h-100.18z" fill="#6d49a5"/><path d="m2567.52 607.62h14.42v199.91h-14.42z" fill="url(#k)" opacity=".39"/><path d="m2661.14 607.62h6.56v199.91h-6.56z" fill="#020202" opacity=".4"/><path d="m2662.36 626.37-11.11 143.47-79.74 35.09s92.1.65 92.41-.22-1.56-178.35-1.56-178.35z" fill="url(#l)" opacity=".2"/><path d="m2665.05 638.3-88.33 1.29-1.67-30.95 86.98 3.67z" fill="#b195cb" opacity=".4"/><path d="m2666.23 607.62h100.18v199.91h-100.18z" fill="#6d49a5"/><path d="m2666.23 607.62h14.42v199.91h-14.42z" fill="url(#m)" opacity=".39"/><path d="m2759.86 607.62h6.56v199.91h-6.56z" fill="#020202" opacity=".4"/><path d="m2761.08 626.37-11.11 143.47-79.74 35.09s92.1.65 92.41-.22-1.56-178.35-1.56-178.35z" fill="url(#n)" opacity=".2"/><path d="m2763.76 638.3-88.32 1.29-1.67-30.95 86.98 3.67z" fill="#b195cb" opacity=".4"/><path d="m2764.95 607.62h100.18v199.91h-100.18z" fill="#6d49a5"/><path d="m2764.95 607.62h14.42v199.91h-14.42z" fill="url(#o)" opacity=".39"/><path d="m2858.57 607.62h6.56v199.91h-6.56z" fill="#020202" opacity=".4"/><path d="m2859.8 626.37-11.11 143.47-79.74 35.09s92.1.65 92.41-.22-1.56-178.35-1.56-178.35z" fill="url(#p)" opacity=".2"/><path d="m2862.48 638.3-88.32 1.29-1.67-30.95 86.98 3.67z" fill="#b195cb" opacity=".4"/><path d="m2863.67 607.62h100.18v199.91h-100.18z" fill="#6d49a5"/><path d="m2863.67 607.62h14.42v199.91h-14.42z" fill="url(#q)" opacity=".39"/><path d="m2957.29 607.62h6.56v199.91h-6.56z" fill="#020202" opacity=".4"/><path d="m2958.52 626.37-11.11 143.47-79.74 35.09s92.1.65 92.41-.22-1.56-178.35-1.56-178.35z" fill="url(#r)" opacity=".2"/><path d="m2961.2 638.3-88.33 1.29-1.66-30.95 86.98 3.67z" fill="#b195cb" opacity=".4"/><path d="m2962.39 607.62h100.18v199.91h-100.18z" fill="#6d49a5"/><path d="m2962.39 607.62h14.42v199.91h-14.42z" fill="url(#s)" opacity=".39"/><path d="m3056.01 607.62h6.56v199.91h-6.56z" fill="#020202" opacity=".4"/><path d="m3057.23 626.37-11.11 143.47-79.74 35.09s92.1.65 92.41-.22-1.56-178.35-1.56-178.35z" fill="url(#t)" opacity=".2"/><path d="m3059.92 638.3-88.33 1.29-1.66-30.95 86.97 3.67z" fill="#b195cb" opacity=".4"/><path d="m3061.11 607.62h100.18v199.91h-100.18z" fill="#6d49a5"/><path d="m3061.11 607.62h14.42v199.91h-14.42z" fill="url(#u)" opacity=".39"/><path d="m3154.73 607.62h6.56v199.91h-6.56z" fill="#020202" opacity=".4"/><path d="m3155.95 626.37-11.11 143.47-79.74 35.09s92.1.65 92.41-.22-1.56-178.35-1.56-178.35z" fill="url(#v)" opacity=".2"/><path d="m3158.64 638.3-88.33 1.29-1.66-30.95 86.97 3.67z" fill="#b195cb" opacity=".4"/><path d="m3159.83 607.62h100.18v199.91h-100.18z" fill="#6d49a5"/><path d="m3159.83 607.62h14.42v199.91h-14.42z" fill="url(#w)" opacity=".39"/><path d="m3253.45 607.62h6.56v199.91h-6.56z" fill="#020202" opacity=".4"/><path d="m3254.67 626.37-11.11 143.47-79.74 35.09s92.1.65 92.41-.22-1.56-178.35-1.56-178.35z" fill="url(#x)" opacity=".2"/><path d="m3257.36 638.3-88.33 1.29-1.67-30.95 86.98 3.67z" fill="#b195cb" opacity=".4"/><path d="m3258.55 607.62h100.18v199.91h-100.18z" fill="#6d49a5"/><path d="m3258.55 607.62h14.42v199.91h-14.42z" fill="url(#y)" opacity=".39"/><path d="m3352.17 607.62h6.56v199.91h-6.56z" fill="#020202" opacity=".4"/><path d="m3353.39 626.37-11.11 143.47-79.74 35.09s92.1.65 92.41-.22-1.56-178.35-1.56-178.35z" fill="url(#z)" opacity=".2"/><path d="m3356.07 638.3-88.32 1.29-1.67-30.95 86.98 3.67z" fill="#b195cb" opacity=".4"/><path d="m3357.26 607.62h100.18v199.91h-100.18z" fill="#6d49a5"/><path d="m3357.26 607.62h14.42v199.91h-14.42z" fill="url(#A)" opacity=".39"/><path d="m3450.88 607.62h6.56v199.91h-6.56z" fill="#020202" opacity=".4"/><path d="m3452.11 626.37-11.11 143.47-79.74 35.09s92.1.65 92.41-.22-1.56-178.35-1.56-178.35z" fill="url(#B)" opacity=".2"/><path d="m3454.79 638.3-88.32 1.29-1.67-30.95 86.98 3.67z" fill="#b195cb" opacity=".4"/><path d="m3455.98 607.62h100.18v199.91h-100.18z" fill="#6d49a5"/><path d="m3455.98 607.62h14.42v199.91h-14.42z" fill="url(#C)" opacity=".39"/><path d="m3549.6 607.62h6.56v199.91h-6.56z" fill="#020202" opacity=".4"/><path d="m3550.83 626.37-11.11 143.47-79.74 35.09s92.1.65 92.41-.22-1.56-178.35-1.56-178.35z" fill="url(#D)" opacity=".2"/><path d="m3553.51 638.3-88.32 1.29-1.67-30.95 86.98 3.67z" fill="#b195cb" opacity=".4"/><path d="m3554.7 607.62h100.18v199.91h-100.18z" fill="#6d49a5"/><path d="m3554.7 607.62h14.42v199.91h-14.42z" fill="url(#E)" opacity=".39"/><path d="m3648.32 607.62h6.56v199.91h-6.56z" fill="#020202" opacity=".4"/><path d="m3649.54 626.37-11.11 143.47-79.74 35.09s92.1.65 92.41-.22-1.56-178.35-1.56-178.35z" fill="url(#F)" opacity=".2"/><path d="m3652.23 638.3-88.33 1.29-1.66-30.95 86.97 3.67z" fill="#b195cb" opacity=".4"/><path d="m3653.42 607.62h100.18v199.91h-100.18z" fill="#6d49a5"/><path d="m3653.42 607.62h14.42v199.91h-14.42z" fill="url(#G)" opacity=".39"/><path d="m3747.04 607.62h6.56v199.91h-6.56z" fill="#020202" opacity=".4"/><path d="m3748.26 626.37-11.11 143.47-79.74 35.09s92.1.65 92.41-.22-1.56-178.35-1.56-178.35z" fill="url(#H)" opacity=".2"/><path d="m3750.95 638.3-88.33 1.29-1.66-30.95 86.97 3.67z" fill="#b195cb" opacity=".4"/><path d="m3752.14 607.62h100.18v199.91h-100.18z" fill="#6d49a5"/><path d="m3752.14 607.62h14.42v199.91h-14.42z" fill="url(#I)" opacity=".39"/><path d="m3845.76 607.62h6.56v199.91h-6.56z" fill="#020202" opacity=".4"/><path d="m3846.98 626.37-11.11 143.47-79.74 35.09s92.1.65 92.41-.22-1.56-178.35-1.56-178.35z" fill="url(#J)" opacity=".2"/><path d="m3849.67 638.3-88.33 1.29-1.66-30.95 86.97 3.67z" fill="#b195cb" opacity=".4"/><path d="m3850.86 607.62h100.18v199.91h-100.18z" fill="#6d49a5"/><path d="m3850.86 607.62h14.42v199.91h-14.42z" fill="url(#K)" opacity=".39"/><path d="m3944.48 607.62h6.56v199.91h-6.56z" fill="#020202" opacity=".4"/><path d="m3945.7 626.37-11.11 143.47-79.74 35.09s92.1.65 92.41-.22-1.56-178.35-1.56-178.35z" fill="url(#L)" opacity=".2"/><path d="m3948.38 638.3-88.32 1.29-1.67-30.95 86.98 3.67z" fill="#b195cb" opacity=".4"/><path d="m3949.57 607.62h100.18v199.91h-100.18z" fill="#6d49a5"/><path d="m3949.57 607.62h14.42v199.91h-14.42z" fill="url(#M)" opacity=".39"/><path d="m4043.19 607.62h6.56v199.91h-6.56z" fill="#020202" opacity=".4"/><path d="m4044.42 626.37-11.11 143.47-79.74 35.09s92.1.65 92.41-.22-1.56-178.35-1.56-178.35z" fill="url(#N)" opacity=".2"/><path d="m4047.1 638.3-88.32 1.29-1.67-30.95 86.98 3.67z" fill="#b195cb" opacity=".4"/><path d="m4048.29 607.62h100.18v199.91h-100.18z" fill="#6d49a5"/><path d="m4048.29 607.62h14.42v199.91h-14.42z" fill="url(#O)" opacity=".39"/><path d="m4141.91 607.62h6.56v199.91h-6.56z" fill="#020202" opacity=".4"/><path d="m4143.14 626.37-11.11 143.47-79.74 35.09s92.1.65 92.41-.22-1.56-178.35-1.56-178.35z" fill="url(#P)" opacity=".2"/><path d="m4145.82 638.3-88.32 1.29-1.67-30.95 86.98 3.67z" fill="#b195cb" opacity=".4"/><path d="m0 607.62h100.18v199.91h-100.18z" fill="#6d49a5"/><path d="m0 607.62h14.42v199.91h-14.42z" fill="url(#Q)" opacity=".39"/><path d="m93.62 607.62h6.56v199.91h-6.56z" fill="#020202" opacity=".4"/><path d="m94.84 626.37-11.11 143.47-79.74 35.1s92.1.65 92.41-.22-1.56-178.35-1.56-178.35z" fill="url(#R)" opacity=".2"/><path d="m97.53 638.3-88.33 1.29-1.66-30.95 86.97 3.67z" fill="#b195cb" opacity=".4"/><path d="m98.72 607.62h100.18v199.91h-100.18z" fill="#6d49a5"/><path d="m98.72 607.62h14.42v199.91h-14.42z" fill="url(#S)" opacity=".39"/><path d="m192.34 607.62h6.56v199.91h-6.56z" fill="#020202" opacity=".4"/><path d="m193.56 626.37-11.11 143.47-79.74 35.09s92.1.65 92.41-.22-1.56-178.35-1.56-178.35z" fill="url(#T)" opacity=".2"/><path d="m196.25 638.3-88.33 1.29-1.66-30.95 86.97 3.67z" fill="#b195cb" opacity=".4"/><path d="m197.44 607.62h100.18v199.91h-100.18z" fill="#6d49a5"/><path d="m197.44 607.62h14.42v199.91h-14.42z" fill="url(#U)" opacity=".39"/><path d="m291.06 607.62h6.56v199.91h-6.56z" fill="#020202" opacity=".4"/><path d="m292.28 626.37-11.11 143.47-79.74 35.09s92.1.65 92.41-.22-1.56-178.35-1.56-178.35z" fill="url(#V)" opacity=".2"/><path d="m294.97 638.3-88.33 1.29-1.67-30.95 86.98 3.67z" fill="#b195cb" opacity=".4"/><path d="m296.16 607.62h100.18v199.91h-100.18z" fill="#6d49a5"/><path d="m296.16 607.62h14.42v199.91h-14.42z" fill="url(#W)" opacity=".39"/><path d="m389.78 607.62h6.56v199.91h-6.56z" fill="#020202" opacity=".4"/><path d="m391 626.37-11.11 143.47-79.74 35.09s92.1.65 92.41-.22-1.56-178.35-1.56-178.35z" fill="url(#X)" opacity=".2"/><path d="m393.68 638.3-88.32 1.29-1.67-30.95 86.98 3.67z" fill="#b195cb" opacity=".4"/><path d="m394.87 607.62h100.18v199.91h-100.18z" fill="#6d49a5"/><path d="m394.87 607.62h14.42v199.91h-14.42z" fill="url(#Y)" opacity=".39"/><path d="m488.49 607.62h6.56v199.91h-6.56z" fill="#020202" opacity=".4"/><path d="m489.72 626.37-11.11 143.47-79.74 35.09s92.1.65 92.41-.22-1.56-178.35-1.56-178.35z" fill="url(#Z)" opacity=".2"/><path d="m492.4 638.3-88.32 1.29-1.67-30.95 86.98 3.67z" fill="#b195cb" opacity=".4"/><path d="m493.59 607.62h100.18v199.91h-100.18z" fill="#6d49a5"/><path d="m493.59 607.62h14.42v199.91h-14.42z" fill="url(#aa)" opacity=".39"/><path d="m587.21 607.62h6.56v199.91h-6.56z" fill="#020202" opacity=".4"/><path d="m588.44 626.37-11.11 143.47-79.74 35.09s92.1.65 92.41-.22-1.56-178.35-1.56-178.35z" fill="url(#ab)" opacity=".2"/><path d="m591.12 638.3-88.33 1.29-1.66-30.95 86.98 3.67z" fill="#b195cb" opacity=".4"/><path d="m592.31 607.62h100.18v199.91h-100.18z" fill="#6d49a5"/><path d="m592.31 607.62h14.42v199.91h-14.42z" fill="url(#ac)" opacity=".39"/><path d="m685.93 607.62h6.56v199.91h-6.56z" fill="#020202" opacity=".4"/><path d="m687.15 626.37-11.11 143.47-79.74 35.09s92.1.65 92.41-.22-1.56-178.35-1.56-178.35z" fill="url(#ad)" opacity=".2"/><path d="m689.84 638.3-88.33 1.29-1.66-30.95 86.97 3.67z" fill="#b195cb" opacity=".4"/><path d="m691.03 607.62h100.18v199.91h-100.18z" fill="#6d49a5"/><path d="m691.03 607.62h14.42v199.91h-14.42z" fill="url(#ae)" opacity=".39"/><path d="m784.65 607.62h6.56v199.91h-6.56z" fill="#020202" opacity=".4"/><path d="m785.87 626.37-11.11 143.47-79.74 35.09s92.1.65 92.41-.22-1.56-178.35-1.56-178.35z" fill="url(#af)" opacity=".2"/><path d="m788.56 638.3-88.33 1.29-1.66-30.95 86.97 3.67z" fill="#b195cb" opacity=".4"/><path d="m789.75 607.62h100.18v199.91h-100.18z" fill="#6d49a5"/><path d="m789.75 607.62h14.42v199.91h-14.42z" fill="url(#ag)" opacity=".39"/><path d="m883.37 607.62h6.56v199.91h-6.56z" fill="#020202" opacity=".4"/><path d="m884.59 626.37-11.11 143.47-79.74 35.09s92.1.65 92.41-.22-1.56-178.35-1.56-178.35z" fill="url(#ah)" opacity=".2"/><path d="m887.28 638.3-88.33 1.29-1.66-30.95 86.97 3.67z" fill="#b195cb" opacity=".4"/><path d="m888.47 607.62h100.18v199.91h-100.18z" fill="#6d49a5"/><path d="m888.47 607.62h14.42v199.91h-14.42z" fill="url(#ai)" opacity=".39"/><path d="m982.09 607.62h6.56v199.91h-6.56z" fill="#020202" opacity=".4"/><path d="m983.31 626.37-11.11 143.47-79.74 35.09s92.1.65 92.41-.22-1.56-178.35-1.56-178.35z" fill="url(#aj)" opacity=".2"/><path d="m985.99 638.3-88.32 1.29-1.67-30.95 86.98 3.67z" fill="#b195cb" opacity=".4"/><path d="m987.18 607.62h100.18v199.91h-100.18z" fill="#6d49a5"/><path d="m987.18 607.62h14.42v199.91h-14.42z" fill="url(#ak)" opacity=".39"/><path d="m1080.8 607.62h6.56v199.91h-6.56z" fill="#020202" opacity=".4"/><path d="m1082.03 626.37-11.11 143.47-79.74 35.09s92.1.65 92.41-.22-1.56-178.35-1.56-178.35z" fill="url(#al)" opacity=".2"/><path d="m1084.71 638.3-88.32 1.29-1.67-30.95 86.98 3.67z" fill="#b195cb" opacity=".4"/><path d="m1085.9 607.62h100.18v199.91h-100.18z" fill="#6d49a5"/><path d="m1085.9 607.62h14.42v199.91h-14.42z" fill="url(#am)" opacity=".39"/><path d="m1179.52 607.62h6.56v199.91h-6.56z" fill="#020202" opacity=".4"/><path d="m1180.75 626.37-11.11 143.47-79.74 35.09s92.1.65 92.41-.22-1.56-178.35-1.56-178.35z" fill="url(#an)" opacity=".2"/><path d="m1183.43 638.3-88.32 1.29-1.67-30.95 86.98 3.67z" fill="#b195cb" opacity=".4"/><path d="m1184.62 607.62h100.18v199.91h-100.18z" fill="#6d49a5"/><path d="m1184.62 607.62h14.42v199.91h-14.42z" fill="url(#ao)" opacity=".39"/><path d="m1278.24 607.62h6.56v199.91h-6.56z" fill="#020202" opacity=".4"/><path d="m1279.46 626.37-11.11 143.47-79.74 35.09s92.1.65 92.41-.22-1.56-178.35-1.56-178.35z" fill="url(#ap)" opacity=".2"/><path d="m1282.15 638.3-88.33 1.29-1.66-30.95 86.97 3.67z" fill="#b195cb" opacity=".4"/><path d="m1283.34 607.62h100.18v199.91h-100.18z" fill="#6d49a5"/><path d="m1283.34 607.62h14.42v199.91h-14.42z" fill="url(#aq)" opacity=".39"/><path d="m1376.96 607.62h6.56v199.91h-6.56z" fill="#020202" opacity=".4"/><path d="m1378.18 626.37-11.11 143.47-79.74 35.09s92.1.65 92.41-.22-1.56-178.35-1.56-178.35z" fill="url(#ar)" opacity=".2"/><path d="m1380.87 638.3-88.33 1.29-1.66-30.95 86.97 3.67z" fill="#b195cb" opacity=".4"/><path d="m1382.06 607.62h100.18v199.91h-100.18z" fill="#6d49a5"/><path d="m1382.06 607.62h14.42v199.91h-14.42z" fill="url(#as)" opacity=".39"/><path d="m1475.68 607.62h6.56v199.91h-6.56z" fill="#020202" opacity=".4"/><path d="m1476.9 626.37-11.11 143.47-79.74 35.09s92.1.65 92.41-.22-1.56-178.35-1.56-178.35z" fill="url(#at)" opacity=".2"/><path d="m1479.59 638.3-88.33 1.29-1.66-30.95 86.97 3.67z" fill="#b195cb" opacity=".4"/><path d="m1480.78 607.62h100.18v199.91h-100.18z" fill="#6d49a5"/><path d="m1480.78 607.62h14.42v199.91h-14.42z" fill="url(#au)" opacity=".39"/><path d="m1574.4 607.62h6.56v199.91h-6.56z" fill="#020202" opacity=".4"/><path d="m1575.62 626.37-11.11 143.47-79.74 35.09s92.1.65 92.41-.22-1.56-178.35-1.56-178.35z" fill="url(#av)" opacity=".2"/><path d="m1578.31 638.3-88.33 1.29-1.67-30.95 86.98 3.67z" fill="#b195cb" opacity=".4"/><path d="m1579.49 607.62h100.18v199.91h-100.18z" fill="#6d49a5"/><path d="m1579.49 607.62h14.42v199.91h-14.42z" fill="url(#aw)" opacity=".39"/><path d="m1673.11 607.62h6.56v199.91h-6.56z" fill="#020202" opacity=".4"/><path d="m1674.34 626.37-11.11 143.47-79.74 35.09s92.1.65 92.41-.22-1.56-178.35-1.56-178.35z" fill="url(#ax)" opacity=".2"/><path d="m1677.02 638.3-88.32 1.29-1.67-30.95 86.98 3.67z" fill="#b195cb" opacity=".4"/><path d="m1678.21 607.62h100.18v199.91h-100.18z" fill="#6d49a5"/><path d="m1678.21 607.62h14.42v199.91h-14.42z" fill="url(#ay)" opacity=".39"/><path d="m1771.83 607.62h6.56v199.91h-6.56z" fill="#020202" opacity=".4"/><path d="m1773.06 626.37-11.11 143.47-79.74 35.09s92.1.65 92.41-.22-1.56-178.35-1.56-178.35z" fill="url(#az)" opacity=".2"/><path d="m1775.74 638.3-88.32 1.29-1.67-30.95 86.98 3.67z" fill="#b195cb" opacity=".4"/><path d="m1776.93 607.62h100.18v199.91h-100.18z" fill="#6d49a5"/><path d="m1776.93 607.62h14.42v199.91h-14.42z" fill="url(#aA)" opacity=".39"/><path d="m1870.55 607.62h6.56v199.91h-6.56z" fill="#020202" opacity=".4"/><path d="m1871.77 626.37-11.11 143.47-79.74 35.09s92.1.65 92.41-.22-1.56-178.35-1.56-178.35z" fill="url(#aB)" opacity=".2"/><path d="m1874.46 638.3-88.33 1.29-1.66-30.95 86.97 3.67z" fill="#b195cb" opacity=".4"/><path d="m1875.65 607.62h100.18v199.91h-100.18z" fill="#6d49a5"/><path d="m1875.65 607.62h14.42v199.91h-14.42z" fill="url(#aC)" opacity=".39"/><path d="m1969.27 607.62h6.56v199.91h-6.56z" fill="#020202" opacity=".4"/><path d="m1970.49 626.37-11.11 143.47-79.74 35.09s92.1.65 92.41-.22-1.56-178.35-1.56-178.35z" fill="url(#aD)" opacity=".2"/><path d="m1973.18 638.3-88.33 1.29-1.66-30.95 86.97 3.67z" fill="#b195cb" opacity=".4"/><path d="m1974.37 607.62h100.18v199.91h-100.18z" fill="#6d49a5"/><path d="m1974.37 607.62h14.42v199.91h-14.42z" fill="url(#aE)" opacity=".39"/><path d="m2067.99 607.62h6.56v199.91h-6.56z" fill="#020202" opacity=".4"/><path d="m2069.21 626.37-11.11 143.47-79.74 35.09s92.1.65 92.41-.22-1.56-178.35-1.56-178.35z" fill="url(#aF)" opacity=".2"/><path d="m2071.9 638.3-88.33 1.29-1.66-30.95 86.97 3.67z" fill="#b195cb" opacity=".4"/><path d="m4147.65 607.62h100.18v199.91h-100.18z" fill="#6d49a5"/><path d="m4147.65 607.62h14.42v199.91h-14.42z" fill="url(#aG)" opacity=".39"/><path d="m4241.27 607.62h6.56v199.91h-6.56z" fill="#020202" opacity=".4"/><path d="m4242.49 626.37-11.11 143.47-79.74 35.09s92.1.65 92.41-.22-1.56-178.35-1.56-178.35z" fill="url(#aH)" opacity=".2"/><path d="m4245.18 638.3-88.33 1.29-1.66-30.95 86.97 3.67z" fill="#b195cb" opacity=".4"/><path d="m4246.37 607.62h100.18v199.91h-100.18z" fill="#6d49a5"/><path d="m4246.37 607.62h14.42v199.91h-14.42z" fill="url(#aI)" opacity=".39"/><path d="m4339.99 607.62h6.56v199.91h-6.56z" fill="#020202" opacity=".4"/><path d="m4341.21 626.37-11.11 143.47-79.74 35.09s92.1.65 92.41-.22-1.56-178.35-1.56-178.35z" fill="url(#aJ)" opacity=".2"/><path d="m4343.9 638.3-88.33 1.29-1.66-30.95 86.97 3.67z" fill="#b195cb" opacity=".4"/><path d="m4345.09 607.62h100.18v199.91h-100.18z" fill="#6d49a5"/><path d="m4345.09 607.62h14.42v199.91h-14.42z" fill="url(#aK)" opacity=".39"/><path d="m4438.71 607.62h6.56v199.91h-6.56z" fill="#020202" opacity=".4"/><path d="m4439.93 626.37-11.11 143.47-79.74 35.09s92.1.65 92.41-.22-1.56-178.35-1.56-178.35z" fill="url(#aL)" opacity=".2"/><path d="m4442.62 638.3-88.33 1.29-1.67-30.95 86.98 3.67z" fill="#b195cb" opacity=".4"/><path d="m4443.8 607.62h100.18v199.91h-100.18z" fill="#6d49a5"/><path d="m4443.8 607.62h14.42v199.91h-14.42z" fill="url(#aM)" opacity=".39"/><path d="m4537.42 607.62h6.56v199.91h-6.56z" fill="#020202" opacity=".4"/><path d="m4538.65 626.37-11.11 143.47-79.74 35.09s92.1.65 92.41-.22-1.56-178.35-1.56-178.35z" fill="url(#aN)" opacity=".2"/><path d="m4541.33 638.3-88.32 1.29-1.67-30.95 86.98 3.67z" fill="#b195cb" opacity=".4"/><path d="m4542.52 607.62h100.18v199.91h-100.18z" fill="#6d49a5"/><path d="m4542.52 607.62h14.42v199.91h-14.42z" fill="url(#aO)" opacity=".39"/><path d="m4636.14 607.62h6.56v199.91h-6.56z" fill="#020202" opacity=".4"/><path d="m4637.37 626.37-11.11 143.47-79.74 35.09s92.1.65 92.41-.22-1.56-178.35-1.56-178.35z" fill="url(#aP)" opacity=".2"/><path d="m4640.05 638.3-88.32 1.29-1.67-30.95 86.98 3.67z" fill="#b195cb" opacity=".4"/><path d="m4641.24 607.62h100.18v199.91h-100.18z" fill="#6d49a5"/><path d="m4641.24 607.62h14.42v199.91h-14.42z" fill="url(#aQ)" opacity=".39"/><path d="m4734.86 607.62h6.56v199.91h-6.56z" fill="#020202" opacity=".4"/><path d="m4736.08 626.37-11.11 143.47-79.74 35.09s92.1.65 92.41-.22-1.56-178.35-1.56-178.35z" fill="url(#aR)" opacity=".2"/><path d="m4738.77 638.3-88.33 1.29-1.66-30.95 86.97 3.67z" fill="#b195cb" opacity=".4"/><path d="m4739.96 607.62h100.18v199.91h-100.18z" fill="#6d49a5"/><path d="m4739.96 607.62h14.42v199.91h-14.42z" fill="url(#aS)" opacity=".39"/><path d="m4833.58 607.62h6.56v199.91h-6.56z" fill="#020202" opacity=".4"/><path d="m4834.8 626.37-11.11 143.47-79.74 35.09s92.1.65 92.41-.22-1.56-178.35-1.56-178.35z" fill="url(#aT)" opacity=".2"/><path d="m4837.49 638.3-88.33 1.29-1.66-30.95 86.97 3.67z" fill="#b195cb" opacity=".4"/><path d="m4838.68 607.62h100.18v199.91h-100.18z" fill="#6d49a5"/><path d="m4838.68 607.62h14.42v199.91h-14.42z" fill="url(#aU)" opacity=".39"/><path d="m4932.3 607.62h6.56v199.91h-6.56z" fill="#020202" opacity=".4"/><path d="m4933.52 626.37-11.11 143.47-79.74 35.09s92.1.65 92.41-.22-1.56-178.35-1.56-178.35z" fill="url(#aV)" opacity=".2"/><path d="m4936.21 638.3-88.33 1.29-1.66-30.95 86.97 3.67z" fill="#b195cb" opacity=".4"/><path d="m4937.4 607.62h100.18v199.91h-100.18z" fill="#6d49a5"/><path d="m4937.4 607.62h14.42v199.91h-14.42z" fill="url(#aW)" opacity=".39"/><path d="m5031.02 607.62h6.56v199.91h-6.56z" fill="#020202" opacity=".4"/><path d="m5032.24 626.37-11.11 143.47-79.74 35.09s92.1.65 92.41-.22-1.56-178.35-1.56-178.35z" fill="url(#aX)" opacity=".2"/><path d="m5034.93 638.3-88.33 1.29-1.67-30.95 86.98 3.67z" fill="#b195cb" opacity=".4"/><path d="m5036.11 607.62h100.18v199.91h-100.18z" fill="#6d49a5"/><path d="m5036.11 607.62h14.42v199.91h-14.42z" fill="url(#aY)" opacity=".39"/><path d="m5129.73 607.62h6.56v199.91h-6.56z" fill="#020202" opacity=".4"/><path d="m5130.96 626.37-11.11 143.47-79.74 35.09s92.1.65 92.41-.22-1.56-178.35-1.56-178.35z" fill="url(#aZ)" opacity=".2"/><path d="m5133.64 638.3-88.32 1.29-1.67-30.95 86.98 3.67z" fill="#b195cb" opacity=".4"/><path d="m5134.83 607.62h100.18v199.91h-100.18z" fill="#6d49a5"/><path d="m5134.83 607.62h14.42v199.91h-14.42z" fill="url(#a0)" opacity=".39"/><path d="m5228.45 607.62h6.56v199.91h-6.56z" fill="#020202" opacity=".4"/><path d="m5229.68 626.37-11.11 143.47-79.74 35.09s92.1.65 92.41-.22-1.56-178.35-1.56-178.35z" fill="url(#a1)" opacity=".2"/><path d="m5232.36 638.3-88.32 1.29-1.67-30.95 86.98 3.67z" fill="#b195cb" opacity=".4"/><path d="m5233.55 607.62h100.18v199.91h-100.18z" fill="#6d49a5"/><path d="m5233.55 607.62h14.42v199.91h-14.42z" fill="url(#a2)" opacity=".39"/><path d="m5327.17 607.62h6.56v199.91h-6.56z" fill="#020202" opacity=".4"/><path d="m5328.39 626.37-11.11 143.47-79.74 35.09s92.1.65 92.41-.22-1.56-178.35-1.56-178.35z" fill="url(#a3)" opacity=".2"/><path d="m5331.08 638.3-88.33 1.29-1.66-30.95 86.97 3.67z" fill="#b195cb" opacity=".4"/><path d="m5332.27 607.62h100.18v199.91h-100.18z" fill="#6d49a5"/><path d="m5332.27 607.62h14.42v199.91h-14.42z" fill="url(#a4)" opacity=".39"/><path d="m5425.89 607.62h6.56v199.91h-6.56z" fill="#020202" opacity=".4"/><path d="m5427.11 626.37-11.11 143.47-79.74 35.09s92.1.65 92.41-.22-1.56-178.35-1.56-178.35z" fill="url(#a5)" opacity=".2"/><path d="m5429.8 638.3-88.33 1.29-1.66-30.95 86.97 3.67z" fill="#b195cb" opacity=".4"/><path d="m5430.99 607.62h100.18v199.91h-100.18z" fill="#6d49a5"/><path d="m5430.99 607.62h14.42v199.91h-14.42z" fill="url(#a6)" opacity=".39"/><path d="m5524.61 607.62h6.56v199.91h-6.56z" fill="#020202" opacity=".4"/><path d="m5525.83 626.37-11.11 143.47-79.74 35.09s92.1.65 92.41-.22-1.56-178.35-1.56-178.35z" fill="url(#a7)" opacity=".2"/><path d="m5528.52 638.3-88.33 1.29-1.66-30.95 86.97 3.67z" fill="#b195cb" opacity=".4"/><path d="m5529.71 607.62h100.18v199.91h-100.18z" fill="#6d49a5"/><path d="m5529.71 607.62h14.42v199.91h-14.42z" fill="url(#a8)" opacity=".39"/><path d="m5623.33 607.62h6.56v199.91h-6.56z" fill="#020202" opacity=".4"/><path d="m5624.55 626.37-11.11 143.47-79.74 35.09s92.1.65 92.41-.22-1.56-178.35-1.56-178.35z" fill="url(#a9)" opacity=".2"/><path d="m5627.24 638.3-88.33 1.29-1.67-30.95 86.98 3.67z" fill="#b195cb" opacity=".4"/><path d="m5628.42 607.62h100.18v199.91h-100.18z" fill="#6d49a5"/><path d="m5628.42 607.62h14.42v199.91h-14.42z" fill="url(#ba)" opacity=".39"/><path d="m5722.05 607.62h6.56v199.91h-6.56z" fill="#020202" opacity=".4"/><path d="m5723.27 626.37-11.11 143.47-79.74 35.09s92.1.65 92.41-.22-1.56-178.35-1.56-178.35z" fill="url(#bb)" opacity=".2"/><path d="m5725.95 638.3-88.32 1.29-1.67-30.95 86.98 3.67z" fill="#b195cb" opacity=".4"/><path d="m5727.14 607.62h100.18v199.91h-100.18z" fill="#6d49a5"/><path d="m5727.14 607.62h14.42v199.91h-14.42z" fill="url(#bc)" opacity=".39"/><path d="m5820.76 607.62h6.56v199.91h-6.56z" fill="#020202" opacity=".4"/><path d="m5821.99 626.37-11.11 143.47-79.74 35.09s92.1.65 92.41-.22-1.56-178.35-1.56-178.35z" fill="url(#bd)" opacity=".2"/><path d="m5824.67 638.3-88.32 1.29-1.67-30.95 86.98 3.67z" fill="#b195cb" opacity=".4"/><path d="m5825.86 607.62h100.18v199.91h-100.18z" fill="#6d49a5"/><path d="m5825.86 607.62h14.42v199.91h-14.42z" fill="url(#be)" opacity=".39"/><path d="m5919.48 607.62h6.56v199.91h-6.56z" fill="#020202" opacity=".4"/><path d="m5920.71 626.37-11.11 143.47-79.74 35.09s92.1.65 92.41-.22-1.56-178.35-1.56-178.35z" fill="url(#bf)" opacity=".2"/><path d="m5923.39 638.3-88.33 1.29-1.66-30.95 86.97 3.67z" fill="#b195cb" opacity=".4"/><path d="m5924.58 607.62h100.18v199.91h-100.18z" fill="#6d49a5"/><path d="m5924.58 607.62h14.42v199.91h-14.42z" fill="url(#bg)" opacity=".39"/><path d="m6018.2 607.62h6.56v199.91h-6.56z" fill="#020202" opacity=".4"/><path d="m6019.42 626.37-11.11 143.47-79.74 35.09s92.1.65 92.41-.22-1.56-178.35-1.56-178.35z" fill="url(#bh)" opacity=".2"/><path d="m6022.11 638.3-88.33 1.29-1.66-30.95 86.97 3.67z" fill="#b195cb" opacity=".4"/><path d="m6023.3 607.62h100.18v199.91h-100.18z" fill="#6d49a5"/><path d="m6023.3 607.62h14.42v199.91h-14.42z" fill="url(#bi)" opacity=".39"/><path d="m6116.92 607.62h6.56v199.91h-6.56z" fill="#020202" opacity=".4"/><path d="m6118.14 626.37-11.11 143.47-79.74 35.09s92.1.65 92.41-.22-1.56-178.35-1.56-178.35z" fill="url(#bj)" opacity=".2"/><path d="m6120.83 638.3-88.33 1.29-1.66-30.95 86.97 3.67z" fill="#b195cb" opacity=".4"/><path d="m6122.02 607.62h100.18v199.91h-100.18z" fill="#6d49a5"/><path d="m6122.02 607.62h14.42v199.91h-14.42z" fill="url(#bk)" opacity=".39"/><path d="m6215.64 607.62h6.56v199.91h-6.56z" fill="#020202" opacity=".4"/><path d="m6216.86 626.37-11.11 143.47-79.74 35.09s92.1.65 92.41-.22-1.56-178.35-1.56-178.35z" fill="url(#bl)" opacity=".2"/><path d="m6219.55 638.3-88.33 1.29-1.67-30.95 86.98 3.67z" fill="#b195cb" opacity=".4"/></svg>